%TF.GenerationSoftware,KiCad,Pcbnew,9.0.4*%
%TF.CreationDate,2026-04-12T00:36:14-04:00*%
%TF.ProjectId,XDT-001,5844542d-3030-4312-9e6b-696361645f70,rev?*%
%TF.SameCoordinates,Original*%
%TF.FileFunction,Paste,Top*%
%TF.FilePolarity,Positive*%
%FSLAX46Y46*%
G04 Gerber Fmt 4.6, Leading zero omitted, Abs format (unit mm)*
G04 Created by KiCad (PCBNEW 9.0.4) date 2026-04-12 00:36:14*
%MOMM*%
%LPD*%
G01*
G04 APERTURE LIST*
G04 Aperture macros list*
%AMRoundRect*
0 Rectangle with rounded corners*
0 $1 Rounding radius*
0 $2 $3 $4 $5 $6 $7 $8 $9 X,Y pos of 4 corners*
0 Add a 4 corners polygon primitive as box body*
4,1,4,$2,$3,$4,$5,$6,$7,$8,$9,$2,$3,0*
0 Add four circle primitives for the rounded corners*
1,1,$1+$1,$2,$3*
1,1,$1+$1,$4,$5*
1,1,$1+$1,$6,$7*
1,1,$1+$1,$8,$9*
0 Add four rect primitives between the rounded corners*
20,1,$1+$1,$2,$3,$4,$5,0*
20,1,$1+$1,$4,$5,$6,$7,0*
20,1,$1+$1,$6,$7,$8,$9,0*
20,1,$1+$1,$8,$9,$2,$3,0*%
G04 Aperture macros list end*
%ADD10RoundRect,0.250000X-0.350000X-0.450000X0.350000X-0.450000X0.350000X0.450000X-0.350000X0.450000X0*%
%ADD11RoundRect,0.250000X0.450000X-0.350000X0.450000X0.350000X-0.450000X0.350000X-0.450000X-0.350000X0*%
%ADD12RoundRect,0.250000X-0.450000X0.350000X-0.450000X-0.350000X0.450000X-0.350000X0.450000X0.350000X0*%
%ADD13RoundRect,0.250000X-0.250000X-0.475000X0.250000X-0.475000X0.250000X0.475000X-0.250000X0.475000X0*%
%ADD14RoundRect,0.250000X-0.475000X0.337500X-0.475000X-0.337500X0.475000X-0.337500X0.475000X0.337500X0*%
%ADD15RoundRect,0.250000X-0.337500X-0.475000X0.337500X-0.475000X0.337500X0.475000X-0.337500X0.475000X0*%
%ADD16RoundRect,0.150000X-0.150000X-0.425000X0.150000X-0.425000X0.150000X0.425000X-0.150000X0.425000X0*%
%ADD17RoundRect,0.075000X-0.075000X-0.500000X0.075000X-0.500000X0.075000X0.500000X-0.075000X0.500000X0*%
%ADD18O,1.000000X2.100000*%
%ADD19O,1.000000X1.800000*%
G04 APERTURE END LIST*
D10*
%TO.C,R5*%
X189000000Y-71000000D03*
X191000000Y-71000000D03*
%TD*%
%TO.C,R3*%
X166000000Y-71000000D03*
X168000000Y-71000000D03*
%TD*%
D11*
%TO.C,R1*%
X92500000Y-120050000D03*
X92500000Y-118050000D03*
%TD*%
D12*
%TO.C,R8*%
X168620000Y-119040000D03*
X168620000Y-121040000D03*
%TD*%
%TO.C,R6*%
X168120000Y-85040000D03*
X168120000Y-87040000D03*
%TD*%
D13*
%TO.C,C5*%
X117600112Y-105199500D03*
X119500112Y-105199500D03*
%TD*%
D14*
%TO.C,C3*%
X83950112Y-96162000D03*
X83950112Y-98237000D03*
%TD*%
D15*
%TO.C,C4*%
X100562612Y-105449500D03*
X102637612Y-105449500D03*
%TD*%
D14*
%TO.C,C2*%
X81500000Y-79462500D03*
X81500000Y-81537500D03*
%TD*%
D12*
%TO.C,R7*%
X168120000Y-97040000D03*
X168120000Y-99040000D03*
%TD*%
D11*
%TO.C,R2*%
X96500000Y-120050000D03*
X96500000Y-118050000D03*
%TD*%
D10*
%TO.C,R4*%
X178000000Y-71000000D03*
X180000000Y-71000000D03*
%TD*%
D16*
%TO.C,J3*%
X90480000Y-123745000D03*
X91280000Y-123745000D03*
D17*
X92430000Y-123745000D03*
X93430000Y-123745000D03*
X93930000Y-123745000D03*
X94930000Y-123745000D03*
D16*
X96080000Y-123745000D03*
X96880000Y-123745000D03*
X96880000Y-123745000D03*
X96080000Y-123745000D03*
D17*
X95430000Y-123745000D03*
X94430000Y-123745000D03*
X92930000Y-123745000D03*
X91930000Y-123745000D03*
D16*
X91280000Y-123745000D03*
X90480000Y-123745000D03*
D18*
X89360000Y-124320000D03*
D19*
X89360000Y-128500000D03*
D18*
X98000000Y-124320000D03*
D19*
X98000000Y-128500000D03*
%TD*%
M02*
