M48
; DRILL file {KiCad 9.0.4} date 2026-04-12T00:36:11-0400
; FORMAT={-:-/ absolute / metric / decimal}
; #@! TF.CreationDate,2026-04-12T00:36:11-04:00
; #@! TF.GenerationSoftware,Kicad,Pcbnew,9.0.4
; #@! TF.FileFunction,Plated,1,2,PTH
FMAT,2
METRIC
; #@! TA.AperFunction,Plated,PTH,ViaDrill
T1C0.300
; #@! TA.AperFunction,Plated,PTH,ComponentDrill
T2C0.600
; #@! TA.AperFunction,Plated,PTH,ComponentDrill
T3C0.800
; #@! TA.AperFunction,Plated,PTH,ComponentDrill
T4C0.900
; #@! TA.AperFunction,Plated,PTH,ComponentDrill
T5C1.000
; #@! TA.AperFunction,Plated,PTH,ComponentDrill
T6C1.500
%
G90
G05
T1
X142.7Y-86.9
X143.1Y-85.0
X143.2Y-85.8
X180.2Y-90.0
X180.5Y-88.2
X180.7Y-86.6
T3
X87.7Y-105.2
X87.7Y-107.7
X100.5Y-109.7
X103.0Y-109.7
X117.5Y-110.2
X120.0Y-110.2
T4
X166.0Y-66.0
X166.0Y-68.54
X176.0Y-66.0
X176.0Y-68.54
X186.0Y-66.0
X186.0Y-68.54
T5
X77.0Y-79.06
X77.0Y-81.6
X77.0Y-84.14
X77.0Y-86.68
X77.0Y-89.22
X77.0Y-91.76
X77.0Y-94.3
X77.0Y-96.84
X77.0Y-99.38
X77.0Y-101.92
X77.0Y-104.46
X77.0Y-107.0
X77.0Y-109.54
X77.0Y-112.08
X87.475Y-97.45
X87.475Y-99.989
X90.015Y-97.45
X90.015Y-99.989
X92.555Y-97.45
X92.555Y-99.989
X95.095Y-97.45
X95.095Y-99.989
X104.28Y-97.45
X104.28Y-99.989
X106.82Y-97.45
X106.82Y-99.989
X109.36Y-97.45
X109.36Y-99.989
X111.9Y-97.45
X111.9Y-99.989
X120.975Y-97.45
X120.975Y-99.989
X123.515Y-97.45
X123.515Y-99.989
X123.729Y-116.396
X123.729Y-118.936
X123.729Y-127.064
X123.729Y-129.604
X126.055Y-97.45
X126.055Y-99.989
X128.595Y-97.45
X128.595Y-99.989
X139.68Y-67.0
X142.22Y-67.0
X142.271Y-116.396
X142.271Y-118.936
X142.271Y-127.064
X142.271Y-129.604
X144.76Y-67.0
X147.3Y-67.0
X149.84Y-67.0
X152.38Y-67.0
X154.92Y-67.0
X157.46Y-67.0
X160.0Y-67.0
X194.5Y-85.495
X194.5Y-88.035
X194.5Y-93.21
X194.5Y-95.75
X194.5Y-98.29
X194.5Y-100.83
X194.525Y-106.175
X194.525Y-108.715
X194.525Y-111.255
X194.525Y-113.795
X194.525Y-116.335
X194.525Y-118.875
X201.0Y-75.46
X201.0Y-78.0
X201.0Y-80.54
X201.0Y-83.08
X201.0Y-85.62
X201.0Y-88.16
X201.0Y-90.7
X201.0Y-93.24
X201.0Y-95.78
X201.0Y-98.32
X201.0Y-100.86
T6
X176.19Y-79.74
X176.23Y-119.5
X176.27Y-99.46
X182.54Y-77.2
X182.58Y-116.96
X182.62Y-96.92
T2
G00X89.36Y-123.77
M15
G01X89.36Y-124.87
M16
G05
G00X89.36Y-128.1
M15
G01X89.36Y-128.9
M16
G05
G00X98.0Y-123.77
M15
G01X98.0Y-124.87
M16
G05
G00X98.0Y-128.1
M15
G01X98.0Y-128.9
M16
G05
M30
