%TF.GenerationSoftware,KiCad,Pcbnew,9.0.4*%
%TF.CreationDate,2026-04-12T00:36:14-04:00*%
%TF.ProjectId,XDT-001,5844542d-3030-4312-9e6b-696361645f70,rev?*%
%TF.SameCoordinates,Original*%
%TF.FileFunction,Legend,Top*%
%TF.FilePolarity,Positive*%
%FSLAX46Y46*%
G04 Gerber Fmt 4.6, Leading zero omitted, Abs format (unit mm)*
G04 Created by KiCad (PCBNEW 9.0.4) date 2026-04-12 00:36:14*
%MOMM*%
%LPD*%
G01*
G04 APERTURE LIST*
%ADD10C,0.150000*%
%ADD11C,0.100000*%
%ADD12C,0.120000*%
G04 APERTURE END LIST*
D10*
X178746667Y-94533200D02*
X178889524Y-94580819D01*
X178889524Y-94580819D02*
X179127619Y-94580819D01*
X179127619Y-94580819D02*
X179222857Y-94533200D01*
X179222857Y-94533200D02*
X179270476Y-94485580D01*
X179270476Y-94485580D02*
X179318095Y-94390342D01*
X179318095Y-94390342D02*
X179318095Y-94295104D01*
X179318095Y-94295104D02*
X179270476Y-94199866D01*
X179270476Y-94199866D02*
X179222857Y-94152247D01*
X179222857Y-94152247D02*
X179127619Y-94104628D01*
X179127619Y-94104628D02*
X178937143Y-94057009D01*
X178937143Y-94057009D02*
X178841905Y-94009390D01*
X178841905Y-94009390D02*
X178794286Y-93961771D01*
X178794286Y-93961771D02*
X178746667Y-93866533D01*
X178746667Y-93866533D02*
X178746667Y-93771295D01*
X178746667Y-93771295D02*
X178794286Y-93676057D01*
X178794286Y-93676057D02*
X178841905Y-93628438D01*
X178841905Y-93628438D02*
X178937143Y-93580819D01*
X178937143Y-93580819D02*
X179175238Y-93580819D01*
X179175238Y-93580819D02*
X179318095Y-93628438D01*
X179651429Y-93580819D02*
X179889524Y-94580819D01*
X179889524Y-94580819D02*
X180080000Y-93866533D01*
X180080000Y-93866533D02*
X180270476Y-94580819D01*
X180270476Y-94580819D02*
X180508572Y-93580819D01*
X181318095Y-93914152D02*
X181318095Y-94580819D01*
X181080000Y-93533200D02*
X180841905Y-94247485D01*
X180841905Y-94247485D02*
X181460952Y-94247485D01*
X189833333Y-73454819D02*
X189500000Y-72978628D01*
X189261905Y-73454819D02*
X189261905Y-72454819D01*
X189261905Y-72454819D02*
X189642857Y-72454819D01*
X189642857Y-72454819D02*
X189738095Y-72502438D01*
X189738095Y-72502438D02*
X189785714Y-72550057D01*
X189785714Y-72550057D02*
X189833333Y-72645295D01*
X189833333Y-72645295D02*
X189833333Y-72788152D01*
X189833333Y-72788152D02*
X189785714Y-72883390D01*
X189785714Y-72883390D02*
X189738095Y-72931009D01*
X189738095Y-72931009D02*
X189642857Y-72978628D01*
X189642857Y-72978628D02*
X189261905Y-72978628D01*
X190738095Y-72454819D02*
X190261905Y-72454819D01*
X190261905Y-72454819D02*
X190214286Y-72931009D01*
X190214286Y-72931009D02*
X190261905Y-72883390D01*
X190261905Y-72883390D02*
X190357143Y-72835771D01*
X190357143Y-72835771D02*
X190595238Y-72835771D01*
X190595238Y-72835771D02*
X190690476Y-72883390D01*
X190690476Y-72883390D02*
X190738095Y-72931009D01*
X190738095Y-72931009D02*
X190785714Y-73026247D01*
X190785714Y-73026247D02*
X190785714Y-73264342D01*
X190785714Y-73264342D02*
X190738095Y-73359580D01*
X190738095Y-73359580D02*
X190690476Y-73407200D01*
X190690476Y-73407200D02*
X190595238Y-73454819D01*
X190595238Y-73454819D02*
X190357143Y-73454819D01*
X190357143Y-73454819D02*
X190261905Y-73407200D01*
X190261905Y-73407200D02*
X190214286Y-73359580D01*
X166833333Y-73454819D02*
X166500000Y-72978628D01*
X166261905Y-73454819D02*
X166261905Y-72454819D01*
X166261905Y-72454819D02*
X166642857Y-72454819D01*
X166642857Y-72454819D02*
X166738095Y-72502438D01*
X166738095Y-72502438D02*
X166785714Y-72550057D01*
X166785714Y-72550057D02*
X166833333Y-72645295D01*
X166833333Y-72645295D02*
X166833333Y-72788152D01*
X166833333Y-72788152D02*
X166785714Y-72883390D01*
X166785714Y-72883390D02*
X166738095Y-72931009D01*
X166738095Y-72931009D02*
X166642857Y-72978628D01*
X166642857Y-72978628D02*
X166261905Y-72978628D01*
X167166667Y-72454819D02*
X167785714Y-72454819D01*
X167785714Y-72454819D02*
X167452381Y-72835771D01*
X167452381Y-72835771D02*
X167595238Y-72835771D01*
X167595238Y-72835771D02*
X167690476Y-72883390D01*
X167690476Y-72883390D02*
X167738095Y-72931009D01*
X167738095Y-72931009D02*
X167785714Y-73026247D01*
X167785714Y-73026247D02*
X167785714Y-73264342D01*
X167785714Y-73264342D02*
X167738095Y-73359580D01*
X167738095Y-73359580D02*
X167690476Y-73407200D01*
X167690476Y-73407200D02*
X167595238Y-73454819D01*
X167595238Y-73454819D02*
X167309524Y-73454819D01*
X167309524Y-73454819D02*
X167214286Y-73407200D01*
X167214286Y-73407200D02*
X167166667Y-73359580D01*
X189414819Y-68008094D02*
X188414819Y-68008094D01*
X188414819Y-68008094D02*
X188414819Y-67769999D01*
X188414819Y-67769999D02*
X188462438Y-67627142D01*
X188462438Y-67627142D02*
X188557676Y-67531904D01*
X188557676Y-67531904D02*
X188652914Y-67484285D01*
X188652914Y-67484285D02*
X188843390Y-67436666D01*
X188843390Y-67436666D02*
X188986247Y-67436666D01*
X188986247Y-67436666D02*
X189176723Y-67484285D01*
X189176723Y-67484285D02*
X189271961Y-67531904D01*
X189271961Y-67531904D02*
X189367200Y-67627142D01*
X189367200Y-67627142D02*
X189414819Y-67769999D01*
X189414819Y-67769999D02*
X189414819Y-68008094D01*
X188414819Y-67103332D02*
X188414819Y-66484285D01*
X188414819Y-66484285D02*
X188795771Y-66817618D01*
X188795771Y-66817618D02*
X188795771Y-66674761D01*
X188795771Y-66674761D02*
X188843390Y-66579523D01*
X188843390Y-66579523D02*
X188891009Y-66531904D01*
X188891009Y-66531904D02*
X188986247Y-66484285D01*
X188986247Y-66484285D02*
X189224342Y-66484285D01*
X189224342Y-66484285D02*
X189319580Y-66531904D01*
X189319580Y-66531904D02*
X189367200Y-66579523D01*
X189367200Y-66579523D02*
X189414819Y-66674761D01*
X189414819Y-66674761D02*
X189414819Y-66960475D01*
X189414819Y-66960475D02*
X189367200Y-67055713D01*
X189367200Y-67055713D02*
X189319580Y-67103332D01*
X162224819Y-67333333D02*
X162939104Y-67333333D01*
X162939104Y-67333333D02*
X163081961Y-67380952D01*
X163081961Y-67380952D02*
X163177200Y-67476190D01*
X163177200Y-67476190D02*
X163224819Y-67619047D01*
X163224819Y-67619047D02*
X163224819Y-67714285D01*
X162224819Y-66952380D02*
X162224819Y-66285714D01*
X162224819Y-66285714D02*
X163224819Y-66714285D01*
X179786667Y-133447200D02*
X179929524Y-133494819D01*
X179929524Y-133494819D02*
X180167619Y-133494819D01*
X180167619Y-133494819D02*
X180262857Y-133447200D01*
X180262857Y-133447200D02*
X180310476Y-133399580D01*
X180310476Y-133399580D02*
X180358095Y-133304342D01*
X180358095Y-133304342D02*
X180358095Y-133209104D01*
X180358095Y-133209104D02*
X180310476Y-133113866D01*
X180310476Y-133113866D02*
X180262857Y-133066247D01*
X180262857Y-133066247D02*
X180167619Y-133018628D01*
X180167619Y-133018628D02*
X179977143Y-132971009D01*
X179977143Y-132971009D02*
X179881905Y-132923390D01*
X179881905Y-132923390D02*
X179834286Y-132875771D01*
X179834286Y-132875771D02*
X179786667Y-132780533D01*
X179786667Y-132780533D02*
X179786667Y-132685295D01*
X179786667Y-132685295D02*
X179834286Y-132590057D01*
X179834286Y-132590057D02*
X179881905Y-132542438D01*
X179881905Y-132542438D02*
X179977143Y-132494819D01*
X179977143Y-132494819D02*
X180215238Y-132494819D01*
X180215238Y-132494819D02*
X180358095Y-132542438D01*
X180691429Y-132494819D02*
X180929524Y-133494819D01*
X180929524Y-133494819D02*
X181120000Y-132780533D01*
X181120000Y-132780533D02*
X181310476Y-133494819D01*
X181310476Y-133494819D02*
X181548572Y-132494819D01*
X182405714Y-132494819D02*
X181929524Y-132494819D01*
X181929524Y-132494819D02*
X181881905Y-132971009D01*
X181881905Y-132971009D02*
X181929524Y-132923390D01*
X181929524Y-132923390D02*
X182024762Y-132875771D01*
X182024762Y-132875771D02*
X182262857Y-132875771D01*
X182262857Y-132875771D02*
X182358095Y-132923390D01*
X182358095Y-132923390D02*
X182405714Y-132971009D01*
X182405714Y-132971009D02*
X182453333Y-133066247D01*
X182453333Y-133066247D02*
X182453333Y-133304342D01*
X182453333Y-133304342D02*
X182405714Y-133399580D01*
X182405714Y-133399580D02*
X182358095Y-133447200D01*
X182358095Y-133447200D02*
X182262857Y-133494819D01*
X182262857Y-133494819D02*
X182024762Y-133494819D01*
X182024762Y-133494819D02*
X181929524Y-133447200D01*
X181929524Y-133447200D02*
X181881905Y-133399580D01*
X91304819Y-119216666D02*
X90828628Y-119549999D01*
X91304819Y-119788094D02*
X90304819Y-119788094D01*
X90304819Y-119788094D02*
X90304819Y-119407142D01*
X90304819Y-119407142D02*
X90352438Y-119311904D01*
X90352438Y-119311904D02*
X90400057Y-119264285D01*
X90400057Y-119264285D02*
X90495295Y-119216666D01*
X90495295Y-119216666D02*
X90638152Y-119216666D01*
X90638152Y-119216666D02*
X90733390Y-119264285D01*
X90733390Y-119264285D02*
X90781009Y-119311904D01*
X90781009Y-119311904D02*
X90828628Y-119407142D01*
X90828628Y-119407142D02*
X90828628Y-119788094D01*
X91304819Y-118264285D02*
X91304819Y-118835713D01*
X91304819Y-118549999D02*
X90304819Y-118549999D01*
X90304819Y-118549999D02*
X90447676Y-118645237D01*
X90447676Y-118645237D02*
X90542914Y-118740475D01*
X90542914Y-118740475D02*
X90590533Y-118835713D01*
X169414819Y-68008094D02*
X168414819Y-68008094D01*
X168414819Y-68008094D02*
X168414819Y-67769999D01*
X168414819Y-67769999D02*
X168462438Y-67627142D01*
X168462438Y-67627142D02*
X168557676Y-67531904D01*
X168557676Y-67531904D02*
X168652914Y-67484285D01*
X168652914Y-67484285D02*
X168843390Y-67436666D01*
X168843390Y-67436666D02*
X168986247Y-67436666D01*
X168986247Y-67436666D02*
X169176723Y-67484285D01*
X169176723Y-67484285D02*
X169271961Y-67531904D01*
X169271961Y-67531904D02*
X169367200Y-67627142D01*
X169367200Y-67627142D02*
X169414819Y-67769999D01*
X169414819Y-67769999D02*
X169414819Y-68008094D01*
X169414819Y-66484285D02*
X169414819Y-67055713D01*
X169414819Y-66769999D02*
X168414819Y-66769999D01*
X168414819Y-66769999D02*
X168557676Y-66865237D01*
X168557676Y-66865237D02*
X168652914Y-66960475D01*
X168652914Y-66960475D02*
X168700533Y-67055713D01*
X170724819Y-120206666D02*
X170248628Y-120539999D01*
X170724819Y-120778094D02*
X169724819Y-120778094D01*
X169724819Y-120778094D02*
X169724819Y-120397142D01*
X169724819Y-120397142D02*
X169772438Y-120301904D01*
X169772438Y-120301904D02*
X169820057Y-120254285D01*
X169820057Y-120254285D02*
X169915295Y-120206666D01*
X169915295Y-120206666D02*
X170058152Y-120206666D01*
X170058152Y-120206666D02*
X170153390Y-120254285D01*
X170153390Y-120254285D02*
X170201009Y-120301904D01*
X170201009Y-120301904D02*
X170248628Y-120397142D01*
X170248628Y-120397142D02*
X170248628Y-120778094D01*
X170153390Y-119635237D02*
X170105771Y-119730475D01*
X170105771Y-119730475D02*
X170058152Y-119778094D01*
X170058152Y-119778094D02*
X169962914Y-119825713D01*
X169962914Y-119825713D02*
X169915295Y-119825713D01*
X169915295Y-119825713D02*
X169820057Y-119778094D01*
X169820057Y-119778094D02*
X169772438Y-119730475D01*
X169772438Y-119730475D02*
X169724819Y-119635237D01*
X169724819Y-119635237D02*
X169724819Y-119444761D01*
X169724819Y-119444761D02*
X169772438Y-119349523D01*
X169772438Y-119349523D02*
X169820057Y-119301904D01*
X169820057Y-119301904D02*
X169915295Y-119254285D01*
X169915295Y-119254285D02*
X169962914Y-119254285D01*
X169962914Y-119254285D02*
X170058152Y-119301904D01*
X170058152Y-119301904D02*
X170105771Y-119349523D01*
X170105771Y-119349523D02*
X170153390Y-119444761D01*
X170153390Y-119444761D02*
X170153390Y-119635237D01*
X170153390Y-119635237D02*
X170201009Y-119730475D01*
X170201009Y-119730475D02*
X170248628Y-119778094D01*
X170248628Y-119778094D02*
X170343866Y-119825713D01*
X170343866Y-119825713D02*
X170534342Y-119825713D01*
X170534342Y-119825713D02*
X170629580Y-119778094D01*
X170629580Y-119778094D02*
X170677200Y-119730475D01*
X170677200Y-119730475D02*
X170724819Y-119635237D01*
X170724819Y-119635237D02*
X170724819Y-119444761D01*
X170724819Y-119444761D02*
X170677200Y-119349523D01*
X170677200Y-119349523D02*
X170629580Y-119301904D01*
X170629580Y-119301904D02*
X170534342Y-119254285D01*
X170534342Y-119254285D02*
X170343866Y-119254285D01*
X170343866Y-119254285D02*
X170248628Y-119301904D01*
X170248628Y-119301904D02*
X170201009Y-119349523D01*
X170201009Y-119349523D02*
X170153390Y-119444761D01*
X178666667Y-74813200D02*
X178809524Y-74860819D01*
X178809524Y-74860819D02*
X179047619Y-74860819D01*
X179047619Y-74860819D02*
X179142857Y-74813200D01*
X179142857Y-74813200D02*
X179190476Y-74765580D01*
X179190476Y-74765580D02*
X179238095Y-74670342D01*
X179238095Y-74670342D02*
X179238095Y-74575104D01*
X179238095Y-74575104D02*
X179190476Y-74479866D01*
X179190476Y-74479866D02*
X179142857Y-74432247D01*
X179142857Y-74432247D02*
X179047619Y-74384628D01*
X179047619Y-74384628D02*
X178857143Y-74337009D01*
X178857143Y-74337009D02*
X178761905Y-74289390D01*
X178761905Y-74289390D02*
X178714286Y-74241771D01*
X178714286Y-74241771D02*
X178666667Y-74146533D01*
X178666667Y-74146533D02*
X178666667Y-74051295D01*
X178666667Y-74051295D02*
X178714286Y-73956057D01*
X178714286Y-73956057D02*
X178761905Y-73908438D01*
X178761905Y-73908438D02*
X178857143Y-73860819D01*
X178857143Y-73860819D02*
X179095238Y-73860819D01*
X179095238Y-73860819D02*
X179238095Y-73908438D01*
X179571429Y-73860819D02*
X179809524Y-74860819D01*
X179809524Y-74860819D02*
X180000000Y-74146533D01*
X180000000Y-74146533D02*
X180190476Y-74860819D01*
X180190476Y-74860819D02*
X180428572Y-73860819D01*
X180714286Y-73860819D02*
X181333333Y-73860819D01*
X181333333Y-73860819D02*
X181000000Y-74241771D01*
X181000000Y-74241771D02*
X181142857Y-74241771D01*
X181142857Y-74241771D02*
X181238095Y-74289390D01*
X181238095Y-74289390D02*
X181285714Y-74337009D01*
X181285714Y-74337009D02*
X181333333Y-74432247D01*
X181333333Y-74432247D02*
X181333333Y-74670342D01*
X181333333Y-74670342D02*
X181285714Y-74765580D01*
X181285714Y-74765580D02*
X181238095Y-74813200D01*
X181238095Y-74813200D02*
X181142857Y-74860819D01*
X181142857Y-74860819D02*
X180857143Y-74860819D01*
X180857143Y-74860819D02*
X180761905Y-74813200D01*
X180761905Y-74813200D02*
X180714286Y-74765580D01*
X124938207Y-102654819D02*
X124938207Y-103464342D01*
X124938207Y-103464342D02*
X124985826Y-103559580D01*
X124985826Y-103559580D02*
X125033445Y-103607200D01*
X125033445Y-103607200D02*
X125128683Y-103654819D01*
X125128683Y-103654819D02*
X125319159Y-103654819D01*
X125319159Y-103654819D02*
X125414397Y-103607200D01*
X125414397Y-103607200D02*
X125462016Y-103559580D01*
X125462016Y-103559580D02*
X125509635Y-103464342D01*
X125509635Y-103464342D02*
X125509635Y-102654819D01*
X126414397Y-102988152D02*
X126414397Y-103654819D01*
X126176302Y-102607200D02*
X125938207Y-103321485D01*
X125938207Y-103321485D02*
X126557254Y-103321485D01*
X193979819Y-103048333D02*
X194694104Y-103048333D01*
X194694104Y-103048333D02*
X194836961Y-103095952D01*
X194836961Y-103095952D02*
X194932200Y-103191190D01*
X194932200Y-103191190D02*
X194979819Y-103334047D01*
X194979819Y-103334047D02*
X194979819Y-103429285D01*
X194313152Y-102143571D02*
X194979819Y-102143571D01*
X193932200Y-102381666D02*
X194646485Y-102619761D01*
X194646485Y-102619761D02*
X194646485Y-102000714D01*
X101107142Y-106309580D02*
X101059523Y-106357200D01*
X101059523Y-106357200D02*
X100916666Y-106404819D01*
X100916666Y-106404819D02*
X100821428Y-106404819D01*
X100821428Y-106404819D02*
X100678571Y-106357200D01*
X100678571Y-106357200D02*
X100583333Y-106261961D01*
X100583333Y-106261961D02*
X100535714Y-106166723D01*
X100535714Y-106166723D02*
X100488095Y-105976247D01*
X100488095Y-105976247D02*
X100488095Y-105833390D01*
X100488095Y-105833390D02*
X100535714Y-105642914D01*
X100535714Y-105642914D02*
X100583333Y-105547676D01*
X100583333Y-105547676D02*
X100678571Y-105452438D01*
X100678571Y-105452438D02*
X100821428Y-105404819D01*
X100821428Y-105404819D02*
X100916666Y-105404819D01*
X100916666Y-105404819D02*
X101059523Y-105452438D01*
X101059523Y-105452438D02*
X101107142Y-105500057D01*
X102059523Y-106404819D02*
X101488095Y-106404819D01*
X101773809Y-106404819D02*
X101773809Y-105404819D01*
X101773809Y-105404819D02*
X101678571Y-105547676D01*
X101678571Y-105547676D02*
X101583333Y-105642914D01*
X101583333Y-105642914D02*
X101488095Y-105690533D01*
X102678571Y-105404819D02*
X102773809Y-105404819D01*
X102773809Y-105404819D02*
X102869047Y-105452438D01*
X102869047Y-105452438D02*
X102916666Y-105500057D01*
X102916666Y-105500057D02*
X102964285Y-105595295D01*
X102964285Y-105595295D02*
X103011904Y-105785771D01*
X103011904Y-105785771D02*
X103011904Y-106023866D01*
X103011904Y-106023866D02*
X102964285Y-106214342D01*
X102964285Y-106214342D02*
X102916666Y-106309580D01*
X102916666Y-106309580D02*
X102869047Y-106357200D01*
X102869047Y-106357200D02*
X102773809Y-106404819D01*
X102773809Y-106404819D02*
X102678571Y-106404819D01*
X102678571Y-106404819D02*
X102583333Y-106357200D01*
X102583333Y-106357200D02*
X102535714Y-106309580D01*
X102535714Y-106309580D02*
X102488095Y-106214342D01*
X102488095Y-106214342D02*
X102440476Y-106023866D01*
X102440476Y-106023866D02*
X102440476Y-105785771D01*
X102440476Y-105785771D02*
X102488095Y-105595295D01*
X102488095Y-105595295D02*
X102535714Y-105500057D01*
X102535714Y-105500057D02*
X102583333Y-105452438D01*
X102583333Y-105452438D02*
X102678571Y-105404819D01*
X194166666Y-89894819D02*
X194166666Y-90609104D01*
X194166666Y-90609104D02*
X194119047Y-90751961D01*
X194119047Y-90751961D02*
X194023809Y-90847200D01*
X194023809Y-90847200D02*
X193880952Y-90894819D01*
X193880952Y-90894819D02*
X193785714Y-90894819D01*
X195071428Y-89894819D02*
X194880952Y-89894819D01*
X194880952Y-89894819D02*
X194785714Y-89942438D01*
X194785714Y-89942438D02*
X194738095Y-89990057D01*
X194738095Y-89990057D02*
X194642857Y-90132914D01*
X194642857Y-90132914D02*
X194595238Y-90323390D01*
X194595238Y-90323390D02*
X194595238Y-90704342D01*
X194595238Y-90704342D02*
X194642857Y-90799580D01*
X194642857Y-90799580D02*
X194690476Y-90847200D01*
X194690476Y-90847200D02*
X194785714Y-90894819D01*
X194785714Y-90894819D02*
X194976190Y-90894819D01*
X194976190Y-90894819D02*
X195071428Y-90847200D01*
X195071428Y-90847200D02*
X195119047Y-90799580D01*
X195119047Y-90799580D02*
X195166666Y-90704342D01*
X195166666Y-90704342D02*
X195166666Y-90466247D01*
X195166666Y-90466247D02*
X195119047Y-90371009D01*
X195119047Y-90371009D02*
X195071428Y-90323390D01*
X195071428Y-90323390D02*
X194976190Y-90275771D01*
X194976190Y-90275771D02*
X194785714Y-90275771D01*
X194785714Y-90275771D02*
X194690476Y-90323390D01*
X194690476Y-90323390D02*
X194642857Y-90371009D01*
X194642857Y-90371009D02*
X194595238Y-90466247D01*
X170224819Y-86206666D02*
X169748628Y-86539999D01*
X170224819Y-86778094D02*
X169224819Y-86778094D01*
X169224819Y-86778094D02*
X169224819Y-86397142D01*
X169224819Y-86397142D02*
X169272438Y-86301904D01*
X169272438Y-86301904D02*
X169320057Y-86254285D01*
X169320057Y-86254285D02*
X169415295Y-86206666D01*
X169415295Y-86206666D02*
X169558152Y-86206666D01*
X169558152Y-86206666D02*
X169653390Y-86254285D01*
X169653390Y-86254285D02*
X169701009Y-86301904D01*
X169701009Y-86301904D02*
X169748628Y-86397142D01*
X169748628Y-86397142D02*
X169748628Y-86778094D01*
X169224819Y-85349523D02*
X169224819Y-85539999D01*
X169224819Y-85539999D02*
X169272438Y-85635237D01*
X169272438Y-85635237D02*
X169320057Y-85682856D01*
X169320057Y-85682856D02*
X169462914Y-85778094D01*
X169462914Y-85778094D02*
X169653390Y-85825713D01*
X169653390Y-85825713D02*
X170034342Y-85825713D01*
X170034342Y-85825713D02*
X170129580Y-85778094D01*
X170129580Y-85778094D02*
X170177200Y-85730475D01*
X170177200Y-85730475D02*
X170224819Y-85635237D01*
X170224819Y-85635237D02*
X170224819Y-85444761D01*
X170224819Y-85444761D02*
X170177200Y-85349523D01*
X170177200Y-85349523D02*
X170129580Y-85301904D01*
X170129580Y-85301904D02*
X170034342Y-85254285D01*
X170034342Y-85254285D02*
X169796247Y-85254285D01*
X169796247Y-85254285D02*
X169701009Y-85301904D01*
X169701009Y-85301904D02*
X169653390Y-85349523D01*
X169653390Y-85349523D02*
X169605771Y-85444761D01*
X169605771Y-85444761D02*
X169605771Y-85635237D01*
X169605771Y-85635237D02*
X169653390Y-85730475D01*
X169653390Y-85730475D02*
X169701009Y-85778094D01*
X169701009Y-85778094D02*
X169796247Y-85825713D01*
X118383445Y-103879080D02*
X118335826Y-103926700D01*
X118335826Y-103926700D02*
X118192969Y-103974319D01*
X118192969Y-103974319D02*
X118097731Y-103974319D01*
X118097731Y-103974319D02*
X117954874Y-103926700D01*
X117954874Y-103926700D02*
X117859636Y-103831461D01*
X117859636Y-103831461D02*
X117812017Y-103736223D01*
X117812017Y-103736223D02*
X117764398Y-103545747D01*
X117764398Y-103545747D02*
X117764398Y-103402890D01*
X117764398Y-103402890D02*
X117812017Y-103212414D01*
X117812017Y-103212414D02*
X117859636Y-103117176D01*
X117859636Y-103117176D02*
X117954874Y-103021938D01*
X117954874Y-103021938D02*
X118097731Y-102974319D01*
X118097731Y-102974319D02*
X118192969Y-102974319D01*
X118192969Y-102974319D02*
X118335826Y-103021938D01*
X118335826Y-103021938D02*
X118383445Y-103069557D01*
X119288207Y-102974319D02*
X118812017Y-102974319D01*
X118812017Y-102974319D02*
X118764398Y-103450509D01*
X118764398Y-103450509D02*
X118812017Y-103402890D01*
X118812017Y-103402890D02*
X118907255Y-103355271D01*
X118907255Y-103355271D02*
X119145350Y-103355271D01*
X119145350Y-103355271D02*
X119240588Y-103402890D01*
X119240588Y-103402890D02*
X119288207Y-103450509D01*
X119288207Y-103450509D02*
X119335826Y-103545747D01*
X119335826Y-103545747D02*
X119335826Y-103783842D01*
X119335826Y-103783842D02*
X119288207Y-103879080D01*
X119288207Y-103879080D02*
X119240588Y-103926700D01*
X119240588Y-103926700D02*
X119145350Y-103974319D01*
X119145350Y-103974319D02*
X118907255Y-103974319D01*
X118907255Y-103974319D02*
X118812017Y-103926700D01*
X118812017Y-103926700D02*
X118764398Y-103879080D01*
X76666666Y-75744819D02*
X76666666Y-76459104D01*
X76666666Y-76459104D02*
X76619047Y-76601961D01*
X76619047Y-76601961D02*
X76523809Y-76697200D01*
X76523809Y-76697200D02*
X76380952Y-76744819D01*
X76380952Y-76744819D02*
X76285714Y-76744819D01*
X77666666Y-76744819D02*
X77095238Y-76744819D01*
X77380952Y-76744819D02*
X77380952Y-75744819D01*
X77380952Y-75744819D02*
X77285714Y-75887676D01*
X77285714Y-75887676D02*
X77190476Y-75982914D01*
X77190476Y-75982914D02*
X77095238Y-76030533D01*
X82809692Y-98828666D02*
X82857312Y-98876285D01*
X82857312Y-98876285D02*
X82904931Y-99019142D01*
X82904931Y-99019142D02*
X82904931Y-99114380D01*
X82904931Y-99114380D02*
X82857312Y-99257237D01*
X82857312Y-99257237D02*
X82762073Y-99352475D01*
X82762073Y-99352475D02*
X82666835Y-99400094D01*
X82666835Y-99400094D02*
X82476359Y-99447713D01*
X82476359Y-99447713D02*
X82333502Y-99447713D01*
X82333502Y-99447713D02*
X82143026Y-99400094D01*
X82143026Y-99400094D02*
X82047788Y-99352475D01*
X82047788Y-99352475D02*
X81952550Y-99257237D01*
X81952550Y-99257237D02*
X81904931Y-99114380D01*
X81904931Y-99114380D02*
X81904931Y-99019142D01*
X81904931Y-99019142D02*
X81952550Y-98876285D01*
X81952550Y-98876285D02*
X82000169Y-98828666D01*
X81904931Y-98495332D02*
X81904931Y-97876285D01*
X81904931Y-97876285D02*
X82285883Y-98209618D01*
X82285883Y-98209618D02*
X82285883Y-98066761D01*
X82285883Y-98066761D02*
X82333502Y-97971523D01*
X82333502Y-97971523D02*
X82381121Y-97923904D01*
X82381121Y-97923904D02*
X82476359Y-97876285D01*
X82476359Y-97876285D02*
X82714454Y-97876285D01*
X82714454Y-97876285D02*
X82809692Y-97923904D01*
X82809692Y-97923904D02*
X82857312Y-97971523D01*
X82857312Y-97971523D02*
X82904931Y-98066761D01*
X82904931Y-98066761D02*
X82904931Y-98352475D01*
X82904931Y-98352475D02*
X82857312Y-98447713D01*
X82857312Y-98447713D02*
X82809692Y-98495332D01*
X101433445Y-104129080D02*
X101385826Y-104176700D01*
X101385826Y-104176700D02*
X101242969Y-104224319D01*
X101242969Y-104224319D02*
X101147731Y-104224319D01*
X101147731Y-104224319D02*
X101004874Y-104176700D01*
X101004874Y-104176700D02*
X100909636Y-104081461D01*
X100909636Y-104081461D02*
X100862017Y-103986223D01*
X100862017Y-103986223D02*
X100814398Y-103795747D01*
X100814398Y-103795747D02*
X100814398Y-103652890D01*
X100814398Y-103652890D02*
X100862017Y-103462414D01*
X100862017Y-103462414D02*
X100909636Y-103367176D01*
X100909636Y-103367176D02*
X101004874Y-103271938D01*
X101004874Y-103271938D02*
X101147731Y-103224319D01*
X101147731Y-103224319D02*
X101242969Y-103224319D01*
X101242969Y-103224319D02*
X101385826Y-103271938D01*
X101385826Y-103271938D02*
X101433445Y-103319557D01*
X102290588Y-103557652D02*
X102290588Y-104224319D01*
X102052493Y-103176700D02*
X101814398Y-103890985D01*
X101814398Y-103890985D02*
X102433445Y-103890985D01*
X93338207Y-102654819D02*
X93338207Y-103464342D01*
X93338207Y-103464342D02*
X93385826Y-103559580D01*
X93385826Y-103559580D02*
X93433445Y-103607200D01*
X93433445Y-103607200D02*
X93528683Y-103654819D01*
X93528683Y-103654819D02*
X93719159Y-103654819D01*
X93719159Y-103654819D02*
X93814397Y-103607200D01*
X93814397Y-103607200D02*
X93862016Y-103559580D01*
X93862016Y-103559580D02*
X93909635Y-103464342D01*
X93909635Y-103464342D02*
X93909635Y-102654819D01*
X94338207Y-102750057D02*
X94385826Y-102702438D01*
X94385826Y-102702438D02*
X94481064Y-102654819D01*
X94481064Y-102654819D02*
X94719159Y-102654819D01*
X94719159Y-102654819D02*
X94814397Y-102702438D01*
X94814397Y-102702438D02*
X94862016Y-102750057D01*
X94862016Y-102750057D02*
X94909635Y-102845295D01*
X94909635Y-102845295D02*
X94909635Y-102940533D01*
X94909635Y-102940533D02*
X94862016Y-103083390D01*
X94862016Y-103083390D02*
X94290588Y-103654819D01*
X94290588Y-103654819D02*
X94909635Y-103654819D01*
X91809692Y-106616166D02*
X91857312Y-106663785D01*
X91857312Y-106663785D02*
X91904931Y-106806642D01*
X91904931Y-106806642D02*
X91904931Y-106901880D01*
X91904931Y-106901880D02*
X91857312Y-107044737D01*
X91857312Y-107044737D02*
X91762073Y-107139975D01*
X91762073Y-107139975D02*
X91666835Y-107187594D01*
X91666835Y-107187594D02*
X91476359Y-107235213D01*
X91476359Y-107235213D02*
X91333502Y-107235213D01*
X91333502Y-107235213D02*
X91143026Y-107187594D01*
X91143026Y-107187594D02*
X91047788Y-107139975D01*
X91047788Y-107139975D02*
X90952550Y-107044737D01*
X90952550Y-107044737D02*
X90904931Y-106901880D01*
X90904931Y-106901880D02*
X90904931Y-106806642D01*
X90904931Y-106806642D02*
X90952550Y-106663785D01*
X90952550Y-106663785D02*
X91000169Y-106616166D01*
X91904931Y-106139975D02*
X91904931Y-105949499D01*
X91904931Y-105949499D02*
X91857312Y-105854261D01*
X91857312Y-105854261D02*
X91809692Y-105806642D01*
X91809692Y-105806642D02*
X91666835Y-105711404D01*
X91666835Y-105711404D02*
X91476359Y-105663785D01*
X91476359Y-105663785D02*
X91095407Y-105663785D01*
X91095407Y-105663785D02*
X91000169Y-105711404D01*
X91000169Y-105711404D02*
X90952550Y-105759023D01*
X90952550Y-105759023D02*
X90904931Y-105854261D01*
X90904931Y-105854261D02*
X90904931Y-106044737D01*
X90904931Y-106044737D02*
X90952550Y-106139975D01*
X90952550Y-106139975D02*
X91000169Y-106187594D01*
X91000169Y-106187594D02*
X91095407Y-106235213D01*
X91095407Y-106235213D02*
X91333502Y-106235213D01*
X91333502Y-106235213D02*
X91428740Y-106187594D01*
X91428740Y-106187594D02*
X91476359Y-106139975D01*
X91476359Y-106139975D02*
X91523978Y-106044737D01*
X91523978Y-106044737D02*
X91523978Y-105854261D01*
X91523978Y-105854261D02*
X91476359Y-105759023D01*
X91476359Y-105759023D02*
X91428740Y-105711404D01*
X91428740Y-105711404D02*
X91333502Y-105663785D01*
X109443207Y-102654819D02*
X109443207Y-103464342D01*
X109443207Y-103464342D02*
X109490826Y-103559580D01*
X109490826Y-103559580D02*
X109538445Y-103607200D01*
X109538445Y-103607200D02*
X109633683Y-103654819D01*
X109633683Y-103654819D02*
X109824159Y-103654819D01*
X109824159Y-103654819D02*
X109919397Y-103607200D01*
X109919397Y-103607200D02*
X109967016Y-103559580D01*
X109967016Y-103559580D02*
X110014635Y-103464342D01*
X110014635Y-103464342D02*
X110014635Y-102654819D01*
X110395588Y-102654819D02*
X111014635Y-102654819D01*
X111014635Y-102654819D02*
X110681302Y-103035771D01*
X110681302Y-103035771D02*
X110824159Y-103035771D01*
X110824159Y-103035771D02*
X110919397Y-103083390D01*
X110919397Y-103083390D02*
X110967016Y-103131009D01*
X110967016Y-103131009D02*
X111014635Y-103226247D01*
X111014635Y-103226247D02*
X111014635Y-103464342D01*
X111014635Y-103464342D02*
X110967016Y-103559580D01*
X110967016Y-103559580D02*
X110919397Y-103607200D01*
X110919397Y-103607200D02*
X110824159Y-103654819D01*
X110824159Y-103654819D02*
X110538445Y-103654819D01*
X110538445Y-103654819D02*
X110443207Y-103607200D01*
X110443207Y-103607200D02*
X110395588Y-103559580D01*
X179414819Y-68008094D02*
X178414819Y-68008094D01*
X178414819Y-68008094D02*
X178414819Y-67769999D01*
X178414819Y-67769999D02*
X178462438Y-67627142D01*
X178462438Y-67627142D02*
X178557676Y-67531904D01*
X178557676Y-67531904D02*
X178652914Y-67484285D01*
X178652914Y-67484285D02*
X178843390Y-67436666D01*
X178843390Y-67436666D02*
X178986247Y-67436666D01*
X178986247Y-67436666D02*
X179176723Y-67484285D01*
X179176723Y-67484285D02*
X179271961Y-67531904D01*
X179271961Y-67531904D02*
X179367200Y-67627142D01*
X179367200Y-67627142D02*
X179414819Y-67769999D01*
X179414819Y-67769999D02*
X179414819Y-68008094D01*
X178510057Y-67055713D02*
X178462438Y-67008094D01*
X178462438Y-67008094D02*
X178414819Y-66912856D01*
X178414819Y-66912856D02*
X178414819Y-66674761D01*
X178414819Y-66674761D02*
X178462438Y-66579523D01*
X178462438Y-66579523D02*
X178510057Y-66531904D01*
X178510057Y-66531904D02*
X178605295Y-66484285D01*
X178605295Y-66484285D02*
X178700533Y-66484285D01*
X178700533Y-66484285D02*
X178843390Y-66531904D01*
X178843390Y-66531904D02*
X179414819Y-67103332D01*
X179414819Y-67103332D02*
X179414819Y-66484285D01*
X82794580Y-88917166D02*
X82842200Y-88964785D01*
X82842200Y-88964785D02*
X82889819Y-89107642D01*
X82889819Y-89107642D02*
X82889819Y-89202880D01*
X82889819Y-89202880D02*
X82842200Y-89345737D01*
X82842200Y-89345737D02*
X82746961Y-89440975D01*
X82746961Y-89440975D02*
X82651723Y-89488594D01*
X82651723Y-89488594D02*
X82461247Y-89536213D01*
X82461247Y-89536213D02*
X82318390Y-89536213D01*
X82318390Y-89536213D02*
X82127914Y-89488594D01*
X82127914Y-89488594D02*
X82032676Y-89440975D01*
X82032676Y-89440975D02*
X81937438Y-89345737D01*
X81937438Y-89345737D02*
X81889819Y-89202880D01*
X81889819Y-89202880D02*
X81889819Y-89107642D01*
X81889819Y-89107642D02*
X81937438Y-88964785D01*
X81937438Y-88964785D02*
X81985057Y-88917166D01*
X81985057Y-88536213D02*
X81937438Y-88488594D01*
X81937438Y-88488594D02*
X81889819Y-88393356D01*
X81889819Y-88393356D02*
X81889819Y-88155261D01*
X81889819Y-88155261D02*
X81937438Y-88060023D01*
X81937438Y-88060023D02*
X81985057Y-88012404D01*
X81985057Y-88012404D02*
X82080295Y-87964785D01*
X82080295Y-87964785D02*
X82175533Y-87964785D01*
X82175533Y-87964785D02*
X82318390Y-88012404D01*
X82318390Y-88012404D02*
X82889819Y-88583832D01*
X82889819Y-88583832D02*
X82889819Y-87964785D01*
X170224819Y-98206666D02*
X169748628Y-98539999D01*
X170224819Y-98778094D02*
X169224819Y-98778094D01*
X169224819Y-98778094D02*
X169224819Y-98397142D01*
X169224819Y-98397142D02*
X169272438Y-98301904D01*
X169272438Y-98301904D02*
X169320057Y-98254285D01*
X169320057Y-98254285D02*
X169415295Y-98206666D01*
X169415295Y-98206666D02*
X169558152Y-98206666D01*
X169558152Y-98206666D02*
X169653390Y-98254285D01*
X169653390Y-98254285D02*
X169701009Y-98301904D01*
X169701009Y-98301904D02*
X169748628Y-98397142D01*
X169748628Y-98397142D02*
X169748628Y-98778094D01*
X169224819Y-97873332D02*
X169224819Y-97206666D01*
X169224819Y-97206666D02*
X170224819Y-97635237D01*
X194166666Y-82179819D02*
X194166666Y-82894104D01*
X194166666Y-82894104D02*
X194119047Y-83036961D01*
X194119047Y-83036961D02*
X194023809Y-83132200D01*
X194023809Y-83132200D02*
X193880952Y-83179819D01*
X193880952Y-83179819D02*
X193785714Y-83179819D01*
X195119047Y-82179819D02*
X194642857Y-82179819D01*
X194642857Y-82179819D02*
X194595238Y-82656009D01*
X194595238Y-82656009D02*
X194642857Y-82608390D01*
X194642857Y-82608390D02*
X194738095Y-82560771D01*
X194738095Y-82560771D02*
X194976190Y-82560771D01*
X194976190Y-82560771D02*
X195071428Y-82608390D01*
X195071428Y-82608390D02*
X195119047Y-82656009D01*
X195119047Y-82656009D02*
X195166666Y-82751247D01*
X195166666Y-82751247D02*
X195166666Y-82989342D01*
X195166666Y-82989342D02*
X195119047Y-83084580D01*
X195119047Y-83084580D02*
X195071428Y-83132200D01*
X195071428Y-83132200D02*
X194976190Y-83179819D01*
X194976190Y-83179819D02*
X194738095Y-83179819D01*
X194738095Y-83179819D02*
X194642857Y-83132200D01*
X194642857Y-83132200D02*
X194595238Y-83084580D01*
X95304819Y-119216666D02*
X94828628Y-119549999D01*
X95304819Y-119788094D02*
X94304819Y-119788094D01*
X94304819Y-119788094D02*
X94304819Y-119407142D01*
X94304819Y-119407142D02*
X94352438Y-119311904D01*
X94352438Y-119311904D02*
X94400057Y-119264285D01*
X94400057Y-119264285D02*
X94495295Y-119216666D01*
X94495295Y-119216666D02*
X94638152Y-119216666D01*
X94638152Y-119216666D02*
X94733390Y-119264285D01*
X94733390Y-119264285D02*
X94781009Y-119311904D01*
X94781009Y-119311904D02*
X94828628Y-119407142D01*
X94828628Y-119407142D02*
X94828628Y-119788094D01*
X94400057Y-118835713D02*
X94352438Y-118788094D01*
X94352438Y-118788094D02*
X94304819Y-118692856D01*
X94304819Y-118692856D02*
X94304819Y-118454761D01*
X94304819Y-118454761D02*
X94352438Y-118359523D01*
X94352438Y-118359523D02*
X94400057Y-118311904D01*
X94400057Y-118311904D02*
X94495295Y-118264285D01*
X94495295Y-118264285D02*
X94590533Y-118264285D01*
X94590533Y-118264285D02*
X94733390Y-118311904D01*
X94733390Y-118311904D02*
X95304819Y-118883332D01*
X95304819Y-118883332D02*
X95304819Y-118264285D01*
X205046666Y-103084819D02*
X205046666Y-103799104D01*
X205046666Y-103799104D02*
X204999047Y-103941961D01*
X204999047Y-103941961D02*
X204903809Y-104037200D01*
X204903809Y-104037200D02*
X204760952Y-104084819D01*
X204760952Y-104084819D02*
X204665714Y-104084819D01*
X205475238Y-103180057D02*
X205522857Y-103132438D01*
X205522857Y-103132438D02*
X205618095Y-103084819D01*
X205618095Y-103084819D02*
X205856190Y-103084819D01*
X205856190Y-103084819D02*
X205951428Y-103132438D01*
X205951428Y-103132438D02*
X205999047Y-103180057D01*
X205999047Y-103180057D02*
X206046666Y-103275295D01*
X206046666Y-103275295D02*
X206046666Y-103370533D01*
X206046666Y-103370533D02*
X205999047Y-103513390D01*
X205999047Y-103513390D02*
X205427619Y-104084819D01*
X205427619Y-104084819D02*
X206046666Y-104084819D01*
X178833333Y-73454819D02*
X178500000Y-72978628D01*
X178261905Y-73454819D02*
X178261905Y-72454819D01*
X178261905Y-72454819D02*
X178642857Y-72454819D01*
X178642857Y-72454819D02*
X178738095Y-72502438D01*
X178738095Y-72502438D02*
X178785714Y-72550057D01*
X178785714Y-72550057D02*
X178833333Y-72645295D01*
X178833333Y-72645295D02*
X178833333Y-72788152D01*
X178833333Y-72788152D02*
X178785714Y-72883390D01*
X178785714Y-72883390D02*
X178738095Y-72931009D01*
X178738095Y-72931009D02*
X178642857Y-72978628D01*
X178642857Y-72978628D02*
X178261905Y-72978628D01*
X179690476Y-72788152D02*
X179690476Y-73454819D01*
X179452381Y-72407200D02*
X179214286Y-73121485D01*
X179214286Y-73121485D02*
X179833333Y-73121485D01*
D11*
X128492439Y-117802980D02*
X128301963Y-117802980D01*
X128301963Y-117802980D02*
X128206725Y-117755361D01*
X128206725Y-117755361D02*
X128111487Y-117660123D01*
X128111487Y-117660123D02*
X128063868Y-117469647D01*
X128063868Y-117469647D02*
X128063868Y-117136314D01*
X128063868Y-117136314D02*
X128111487Y-116945838D01*
X128111487Y-116945838D02*
X128206725Y-116850600D01*
X128206725Y-116850600D02*
X128301963Y-116802980D01*
X128301963Y-116802980D02*
X128492439Y-116802980D01*
X128492439Y-116802980D02*
X128587677Y-116850600D01*
X128587677Y-116850600D02*
X128682915Y-116945838D01*
X128682915Y-116945838D02*
X128730534Y-117136314D01*
X128730534Y-117136314D02*
X128730534Y-117469647D01*
X128730534Y-117469647D02*
X128682915Y-117660123D01*
X128682915Y-117660123D02*
X128587677Y-117755361D01*
X128587677Y-117755361D02*
X128492439Y-117802980D01*
X127635296Y-117802980D02*
X127635296Y-116993457D01*
X127635296Y-116993457D02*
X127587677Y-116898219D01*
X127587677Y-116898219D02*
X127540058Y-116850600D01*
X127540058Y-116850600D02*
X127444820Y-116802980D01*
X127444820Y-116802980D02*
X127254344Y-116802980D01*
X127254344Y-116802980D02*
X127159106Y-116850600D01*
X127159106Y-116850600D02*
X127111487Y-116898219D01*
X127111487Y-116898219D02*
X127063868Y-116993457D01*
X127063868Y-116993457D02*
X127063868Y-117802980D01*
X126730534Y-117802980D02*
X126159106Y-117802980D01*
X126444820Y-116802980D02*
X126444820Y-117802980D01*
X125825772Y-117183933D02*
X125063868Y-117183933D01*
X125444820Y-116802980D02*
X125444820Y-117564885D01*
X140468515Y-127724980D02*
X140468515Y-128724980D01*
X139992325Y-127724980D02*
X139992325Y-128724980D01*
X139992325Y-128724980D02*
X139420897Y-127724980D01*
X139420897Y-127724980D02*
X139420897Y-128724980D01*
X138944706Y-128105933D02*
X138182802Y-128105933D01*
X136836115Y-123002580D02*
X136836115Y-124002580D01*
X136836115Y-124002580D02*
X136502782Y-123288295D01*
X136502782Y-123288295D02*
X136169449Y-124002580D01*
X136169449Y-124002580D02*
X136169449Y-123002580D01*
X135693258Y-123002580D02*
X135693258Y-124002580D01*
X135693258Y-124002580D02*
X135312306Y-124002580D01*
X135312306Y-124002580D02*
X135217068Y-123954961D01*
X135217068Y-123954961D02*
X135169449Y-123907342D01*
X135169449Y-123907342D02*
X135121830Y-123812104D01*
X135121830Y-123812104D02*
X135121830Y-123669247D01*
X135121830Y-123669247D02*
X135169449Y-123574009D01*
X135169449Y-123574009D02*
X135217068Y-123526390D01*
X135217068Y-123526390D02*
X135312306Y-123478771D01*
X135312306Y-123478771D02*
X135693258Y-123478771D01*
X134169449Y-123002580D02*
X134740877Y-123002580D01*
X134455163Y-123002580D02*
X134455163Y-124002580D01*
X134455163Y-124002580D02*
X134550401Y-123859723D01*
X134550401Y-123859723D02*
X134645639Y-123764485D01*
X134645639Y-123764485D02*
X134740877Y-123716866D01*
X133264687Y-124002580D02*
X133740877Y-124002580D01*
X133740877Y-124002580D02*
X133788496Y-123526390D01*
X133788496Y-123526390D02*
X133740877Y-123574009D01*
X133740877Y-123574009D02*
X133645639Y-123621628D01*
X133645639Y-123621628D02*
X133407544Y-123621628D01*
X133407544Y-123621628D02*
X133312306Y-123574009D01*
X133312306Y-123574009D02*
X133264687Y-123526390D01*
X133264687Y-123526390D02*
X133217068Y-123431152D01*
X133217068Y-123431152D02*
X133217068Y-123193057D01*
X133217068Y-123193057D02*
X133264687Y-123097819D01*
X133264687Y-123097819D02*
X133312306Y-123050200D01*
X133312306Y-123050200D02*
X133407544Y-123002580D01*
X133407544Y-123002580D02*
X133645639Y-123002580D01*
X133645639Y-123002580D02*
X133740877Y-123050200D01*
X133740877Y-123050200D02*
X133788496Y-123097819D01*
X132645639Y-123574009D02*
X132740877Y-123621628D01*
X132740877Y-123621628D02*
X132788496Y-123669247D01*
X132788496Y-123669247D02*
X132836115Y-123764485D01*
X132836115Y-123764485D02*
X132836115Y-123812104D01*
X132836115Y-123812104D02*
X132788496Y-123907342D01*
X132788496Y-123907342D02*
X132740877Y-123954961D01*
X132740877Y-123954961D02*
X132645639Y-124002580D01*
X132645639Y-124002580D02*
X132455163Y-124002580D01*
X132455163Y-124002580D02*
X132359925Y-123954961D01*
X132359925Y-123954961D02*
X132312306Y-123907342D01*
X132312306Y-123907342D02*
X132264687Y-123812104D01*
X132264687Y-123812104D02*
X132264687Y-123764485D01*
X132264687Y-123764485D02*
X132312306Y-123669247D01*
X132312306Y-123669247D02*
X132359925Y-123621628D01*
X132359925Y-123621628D02*
X132455163Y-123574009D01*
X132455163Y-123574009D02*
X132645639Y-123574009D01*
X132645639Y-123574009D02*
X132740877Y-123526390D01*
X132740877Y-123526390D02*
X132788496Y-123478771D01*
X132788496Y-123478771D02*
X132836115Y-123383533D01*
X132836115Y-123383533D02*
X132836115Y-123193057D01*
X132836115Y-123193057D02*
X132788496Y-123097819D01*
X132788496Y-123097819D02*
X132740877Y-123050200D01*
X132740877Y-123050200D02*
X132645639Y-123002580D01*
X132645639Y-123002580D02*
X132455163Y-123002580D01*
X132455163Y-123002580D02*
X132359925Y-123050200D01*
X132359925Y-123050200D02*
X132312306Y-123097819D01*
X132312306Y-123097819D02*
X132264687Y-123193057D01*
X132264687Y-123193057D02*
X132264687Y-123383533D01*
X132264687Y-123383533D02*
X132312306Y-123478771D01*
X132312306Y-123478771D02*
X132359925Y-123526390D01*
X132359925Y-123526390D02*
X132455163Y-123574009D01*
X131407544Y-123669247D02*
X131407544Y-123002580D01*
X131645639Y-124050200D02*
X131883734Y-123335914D01*
X131883734Y-123335914D02*
X131264687Y-123335914D01*
X130883734Y-123526390D02*
X130550401Y-123526390D01*
X130407544Y-123002580D02*
X130883734Y-123002580D01*
X130883734Y-123002580D02*
X130883734Y-124002580D01*
X130883734Y-124002580D02*
X130407544Y-124002580D01*
X129978972Y-123002580D02*
X129978972Y-124002580D01*
X129978972Y-124002580D02*
X129407544Y-123002580D01*
X129407544Y-123002580D02*
X129407544Y-124002580D01*
X140066115Y-116697580D02*
X140066115Y-117697580D01*
X139589925Y-116697580D02*
X139589925Y-117697580D01*
X139589925Y-117697580D02*
X139018497Y-116697580D01*
X139018497Y-116697580D02*
X139018497Y-117697580D01*
X138542306Y-117078533D02*
X137780402Y-117078533D01*
X138161354Y-116697580D02*
X138161354Y-117459485D01*
X128263839Y-128699580D02*
X128073363Y-128699580D01*
X128073363Y-128699580D02*
X127978125Y-128651961D01*
X127978125Y-128651961D02*
X127882887Y-128556723D01*
X127882887Y-128556723D02*
X127835268Y-128366247D01*
X127835268Y-128366247D02*
X127835268Y-128032914D01*
X127835268Y-128032914D02*
X127882887Y-127842438D01*
X127882887Y-127842438D02*
X127978125Y-127747200D01*
X127978125Y-127747200D02*
X128073363Y-127699580D01*
X128073363Y-127699580D02*
X128263839Y-127699580D01*
X128263839Y-127699580D02*
X128359077Y-127747200D01*
X128359077Y-127747200D02*
X128454315Y-127842438D01*
X128454315Y-127842438D02*
X128501934Y-128032914D01*
X128501934Y-128032914D02*
X128501934Y-128366247D01*
X128501934Y-128366247D02*
X128454315Y-128556723D01*
X128454315Y-128556723D02*
X128359077Y-128651961D01*
X128359077Y-128651961D02*
X128263839Y-128699580D01*
X127406696Y-128699580D02*
X127406696Y-127890057D01*
X127406696Y-127890057D02*
X127359077Y-127794819D01*
X127359077Y-127794819D02*
X127311458Y-127747200D01*
X127311458Y-127747200D02*
X127216220Y-127699580D01*
X127216220Y-127699580D02*
X127025744Y-127699580D01*
X127025744Y-127699580D02*
X126930506Y-127747200D01*
X126930506Y-127747200D02*
X126882887Y-127794819D01*
X126882887Y-127794819D02*
X126835268Y-127890057D01*
X126835268Y-127890057D02*
X126835268Y-128699580D01*
X126501934Y-128699580D02*
X125930506Y-128699580D01*
X126216220Y-127699580D02*
X126216220Y-128699580D01*
X125597172Y-128080533D02*
X124835268Y-128080533D01*
D10*
X118107142Y-106809580D02*
X118059523Y-106857200D01*
X118059523Y-106857200D02*
X117916666Y-106904819D01*
X117916666Y-106904819D02*
X117821428Y-106904819D01*
X117821428Y-106904819D02*
X117678571Y-106857200D01*
X117678571Y-106857200D02*
X117583333Y-106761961D01*
X117583333Y-106761961D02*
X117535714Y-106666723D01*
X117535714Y-106666723D02*
X117488095Y-106476247D01*
X117488095Y-106476247D02*
X117488095Y-106333390D01*
X117488095Y-106333390D02*
X117535714Y-106142914D01*
X117535714Y-106142914D02*
X117583333Y-106047676D01*
X117583333Y-106047676D02*
X117678571Y-105952438D01*
X117678571Y-105952438D02*
X117821428Y-105904819D01*
X117821428Y-105904819D02*
X117916666Y-105904819D01*
X117916666Y-105904819D02*
X118059523Y-105952438D01*
X118059523Y-105952438D02*
X118107142Y-106000057D01*
X119059523Y-106904819D02*
X118488095Y-106904819D01*
X118773809Y-106904819D02*
X118773809Y-105904819D01*
X118773809Y-105904819D02*
X118678571Y-106047676D01*
X118678571Y-106047676D02*
X118583333Y-106142914D01*
X118583333Y-106142914D02*
X118488095Y-106190533D01*
X120011904Y-106904819D02*
X119440476Y-106904819D01*
X119726190Y-106904819D02*
X119726190Y-105904819D01*
X119726190Y-105904819D02*
X119630952Y-106047676D01*
X119630952Y-106047676D02*
X119535714Y-106142914D01*
X119535714Y-106142914D02*
X119440476Y-106190533D01*
X93346666Y-121379819D02*
X93346666Y-122094104D01*
X93346666Y-122094104D02*
X93299047Y-122236961D01*
X93299047Y-122236961D02*
X93203809Y-122332200D01*
X93203809Y-122332200D02*
X93060952Y-122379819D01*
X93060952Y-122379819D02*
X92965714Y-122379819D01*
X93727619Y-121379819D02*
X94346666Y-121379819D01*
X94346666Y-121379819D02*
X94013333Y-121760771D01*
X94013333Y-121760771D02*
X94156190Y-121760771D01*
X94156190Y-121760771D02*
X94251428Y-121808390D01*
X94251428Y-121808390D02*
X94299047Y-121856009D01*
X94299047Y-121856009D02*
X94346666Y-121951247D01*
X94346666Y-121951247D02*
X94346666Y-122189342D01*
X94346666Y-122189342D02*
X94299047Y-122284580D01*
X94299047Y-122284580D02*
X94251428Y-122332200D01*
X94251428Y-122332200D02*
X94156190Y-122379819D01*
X94156190Y-122379819D02*
X93870476Y-122379819D01*
X93870476Y-122379819D02*
X93775238Y-122332200D01*
X93775238Y-122332200D02*
X93727619Y-122284580D01*
D12*
%TO.C,SW4*%
X173095000Y-95015000D02*
X187065000Y-95015000D01*
X173095000Y-108985000D02*
X173095000Y-95015000D01*
X187065000Y-95015000D02*
X187065000Y-108985000D01*
X187065000Y-108985000D02*
X173095000Y-108985000D01*
%TO.C,R5*%
X189772936Y-70265000D02*
X190227064Y-70265000D01*
X189772936Y-71735000D02*
X190227064Y-71735000D01*
%TO.C,R3*%
X166772936Y-70265000D02*
X167227064Y-70265000D01*
X166772936Y-71735000D02*
X167227064Y-71735000D01*
%TO.C,D3*%
X184920000Y-65710000D02*
X184764000Y-65710000D01*
X187236000Y-65710000D02*
X187080000Y-65710000D01*
X184920000Y-68310961D02*
G75*
G02*
X184920000Y-66229039I1080000J1040961D01*
G01*
X184920000Y-68941437D02*
G75*
G02*
X184764484Y-65710000I1080000J1671437D01*
G01*
X187080000Y-66229039D02*
G75*
G02*
X187080000Y-68310961I-1080000J-1040961D01*
G01*
X187235516Y-65710000D02*
G75*
G02*
X187080000Y-68941437I-1235516J-1560000D01*
G01*
%TO.C,J7*%
X138350000Y-65670000D02*
X138350000Y-68330000D01*
X158730000Y-65670000D02*
X138350000Y-65670000D01*
X158730000Y-65670000D02*
X158730000Y-68330000D01*
X158730000Y-68330000D02*
X138350000Y-68330000D01*
X161330000Y-67000000D02*
X161330000Y-68330000D01*
X161330000Y-68330000D02*
X160000000Y-68330000D01*
%TO.C,SW5*%
X173055000Y-115055000D02*
X187025000Y-115055000D01*
X173055000Y-129025000D02*
X173055000Y-115055000D01*
X187025000Y-115055000D02*
X187025000Y-129025000D01*
X187025000Y-129025000D02*
X173055000Y-129025000D01*
%TO.C,R1*%
X91765000Y-119277064D02*
X91765000Y-118822936D01*
X93235000Y-119277064D02*
X93235000Y-118822936D01*
%TO.C,D1*%
X164920000Y-65710000D02*
X164764000Y-65710000D01*
X167236000Y-65710000D02*
X167080000Y-65710000D01*
X164920000Y-68310961D02*
G75*
G02*
X164920000Y-66229039I1080000J1040961D01*
G01*
X164920000Y-68941437D02*
G75*
G02*
X164764484Y-65710000I1080000J1671437D01*
G01*
X167080000Y-66229039D02*
G75*
G02*
X167080000Y-68310961I-1080000J-1040961D01*
G01*
X167235516Y-65710000D02*
G75*
G02*
X167080000Y-68941437I-1235516J-1560000D01*
G01*
%TO.C,R8*%
X167885000Y-119812936D02*
X167885000Y-120267064D01*
X169355000Y-119812936D02*
X169355000Y-120267064D01*
%TO.C,SW3*%
X173015000Y-75295000D02*
X186985000Y-75295000D01*
X173015000Y-89265000D02*
X173015000Y-75295000D01*
X186985000Y-75295000D02*
X186985000Y-89265000D01*
X186985000Y-89265000D02*
X173015000Y-89265000D01*
%TO.C,U4*%
X118875112Y-72389500D02*
X134325112Y-72389500D01*
X118875112Y-101589500D02*
X118875112Y-72389500D01*
X118875112Y-101589500D02*
X118875112Y-101589500D01*
X119451112Y-95925500D02*
X130119112Y-95925500D01*
X119451112Y-101259500D02*
X119451112Y-95925500D01*
X119451112Y-101259500D02*
X119451112Y-101259500D01*
X130119112Y-95925500D02*
X130119112Y-101259500D01*
X130119112Y-101259500D02*
X119451112Y-101259500D01*
X130119112Y-101259500D02*
X130119112Y-101259500D01*
X134325112Y-72389500D02*
X134325112Y-101589500D01*
X134325112Y-101589500D02*
X118875112Y-101589500D01*
X121215112Y-102125500D02*
X120735112Y-102125500D01*
X120975112Y-101789500D01*
X121215112Y-102125500D01*
G36*
X121215112Y-102125500D02*
G01*
X120735112Y-102125500D01*
X120975112Y-101789500D01*
X121215112Y-102125500D01*
G37*
%TO.C,J4*%
X193195000Y-107445000D02*
X193195000Y-120205000D01*
X193195000Y-107445000D02*
X195855000Y-107445000D01*
X193195000Y-120205000D02*
X195855000Y-120205000D01*
X194525000Y-104845000D02*
X195855000Y-104845000D01*
X195855000Y-104845000D02*
X195855000Y-106175000D01*
X195855000Y-107445000D02*
X195855000Y-120205000D01*
%TO.C,C10*%
X98945225Y-108225000D02*
X99445225Y-108225000D01*
X99195225Y-107975000D02*
X99195225Y-108475000D01*
X101750000Y-107120000D02*
X101750000Y-112280000D01*
X101790000Y-107120000D02*
X101790000Y-112280000D01*
X101830000Y-107121000D02*
X101830000Y-112279000D01*
X101870000Y-107123000D02*
X101870000Y-112277000D01*
X101910000Y-107125000D02*
X101910000Y-112275000D01*
X101950000Y-107128000D02*
X101950000Y-112272000D01*
X101990000Y-107131000D02*
X101990000Y-108660000D01*
X101990000Y-110740000D02*
X101990000Y-112269000D01*
X102030000Y-107135000D02*
X102030000Y-108660000D01*
X102030000Y-110740000D02*
X102030000Y-112265000D01*
X102070000Y-107140000D02*
X102070000Y-108660000D01*
X102070000Y-110740000D02*
X102070000Y-112260000D01*
X102110000Y-107145000D02*
X102110000Y-108660000D01*
X102110000Y-110740000D02*
X102110000Y-112255000D01*
X102150000Y-107151000D02*
X102150000Y-108660000D01*
X102150000Y-110740000D02*
X102150000Y-112249000D01*
X102190000Y-107157000D02*
X102190000Y-108660000D01*
X102190000Y-110740000D02*
X102190000Y-112243000D01*
X102230000Y-107164000D02*
X102230000Y-108660000D01*
X102230000Y-110740000D02*
X102230000Y-112236000D01*
X102270000Y-107172000D02*
X102270000Y-108660000D01*
X102270000Y-110740000D02*
X102270000Y-112228000D01*
X102310000Y-107181000D02*
X102310000Y-108660000D01*
X102310000Y-110740000D02*
X102310000Y-112219000D01*
X102350000Y-107190000D02*
X102350000Y-108660000D01*
X102350000Y-110740000D02*
X102350000Y-112210000D01*
X102390000Y-107199000D02*
X102390000Y-108660000D01*
X102390000Y-110740000D02*
X102390000Y-112201000D01*
X102430000Y-107210000D02*
X102430000Y-108660000D01*
X102430000Y-110740000D02*
X102430000Y-112190000D01*
X102470000Y-107221000D02*
X102470000Y-108660000D01*
X102470000Y-110740000D02*
X102470000Y-112179000D01*
X102510000Y-107233000D02*
X102510000Y-108660000D01*
X102510000Y-110740000D02*
X102510000Y-112167000D01*
X102550000Y-107245000D02*
X102550000Y-108660000D01*
X102550000Y-110740000D02*
X102550000Y-112155000D01*
X102590000Y-107258000D02*
X102590000Y-108660000D01*
X102590000Y-110740000D02*
X102590000Y-112142000D01*
X102630000Y-107272000D02*
X102630000Y-108660000D01*
X102630000Y-110740000D02*
X102630000Y-112128000D01*
X102670000Y-107287000D02*
X102670000Y-108660000D01*
X102670000Y-110740000D02*
X102670000Y-112113000D01*
X102710000Y-107302000D02*
X102710000Y-108660000D01*
X102710000Y-110740000D02*
X102710000Y-112098000D01*
X102750000Y-107318000D02*
X102750000Y-108660000D01*
X102750000Y-110740000D02*
X102750000Y-112082000D01*
X102790000Y-107335000D02*
X102790000Y-108660000D01*
X102790000Y-110740000D02*
X102790000Y-112065000D01*
X102830000Y-107353000D02*
X102830000Y-108660000D01*
X102830000Y-110740000D02*
X102830000Y-112047000D01*
X102870000Y-107371000D02*
X102870000Y-108660000D01*
X102870000Y-110740000D02*
X102870000Y-112029000D01*
X102910000Y-107391000D02*
X102910000Y-108660000D01*
X102910000Y-110740000D02*
X102910000Y-112009000D01*
X102950000Y-107411000D02*
X102950000Y-108660000D01*
X102950000Y-110740000D02*
X102950000Y-111989000D01*
X102990000Y-107432000D02*
X102990000Y-108660000D01*
X102990000Y-110740000D02*
X102990000Y-111968000D01*
X103030000Y-107454000D02*
X103030000Y-108660000D01*
X103030000Y-110740000D02*
X103030000Y-111946000D01*
X103070000Y-107477000D02*
X103070000Y-108660000D01*
X103070000Y-110740000D02*
X103070000Y-111923000D01*
X103110000Y-107501000D02*
X103110000Y-108660000D01*
X103110000Y-110740000D02*
X103110000Y-111899000D01*
X103150000Y-107525000D02*
X103150000Y-108660000D01*
X103150000Y-110740000D02*
X103150000Y-111875000D01*
X103190000Y-107551000D02*
X103190000Y-108660000D01*
X103190000Y-110740000D02*
X103190000Y-111849000D01*
X103230000Y-107578000D02*
X103230000Y-108660000D01*
X103230000Y-110740000D02*
X103230000Y-111822000D01*
X103270000Y-107606000D02*
X103270000Y-108660000D01*
X103270000Y-110740000D02*
X103270000Y-111794000D01*
X103310000Y-107635000D02*
X103310000Y-108660000D01*
X103310000Y-110740000D02*
X103310000Y-111765000D01*
X103350000Y-107665000D02*
X103350000Y-108660000D01*
X103350000Y-110740000D02*
X103350000Y-111735000D01*
X103390000Y-107697000D02*
X103390000Y-108660000D01*
X103390000Y-110740000D02*
X103390000Y-111703000D01*
X103430000Y-107730000D02*
X103430000Y-108660000D01*
X103430000Y-110740000D02*
X103430000Y-111670000D01*
X103470000Y-107764000D02*
X103470000Y-108660000D01*
X103470000Y-110740000D02*
X103470000Y-111636000D01*
X103510000Y-107799000D02*
X103510000Y-108660000D01*
X103510000Y-110740000D02*
X103510000Y-111601000D01*
X103550000Y-107836000D02*
X103550000Y-108660000D01*
X103550000Y-110740000D02*
X103550000Y-111564000D01*
X103590000Y-107875000D02*
X103590000Y-108660000D01*
X103590000Y-110740000D02*
X103590000Y-111525000D01*
X103630000Y-107915000D02*
X103630000Y-108660000D01*
X103630000Y-110740000D02*
X103630000Y-111485000D01*
X103670000Y-107957000D02*
X103670000Y-108660000D01*
X103670000Y-110740000D02*
X103670000Y-111443000D01*
X103710000Y-108001000D02*
X103710000Y-108660000D01*
X103710000Y-110740000D02*
X103710000Y-111399000D01*
X103750000Y-108048000D02*
X103750000Y-108660000D01*
X103750000Y-110740000D02*
X103750000Y-111352000D01*
X103790000Y-108096000D02*
X103790000Y-108660000D01*
X103790000Y-110740000D02*
X103790000Y-111304000D01*
X103830000Y-108147000D02*
X103830000Y-108660000D01*
X103830000Y-110740000D02*
X103830000Y-111253000D01*
X103870000Y-108201000D02*
X103870000Y-108660000D01*
X103870000Y-110740000D02*
X103870000Y-111199000D01*
X103910000Y-108257000D02*
X103910000Y-108660000D01*
X103910000Y-110740000D02*
X103910000Y-111143000D01*
X103950000Y-108317000D02*
X103950000Y-108660000D01*
X103950000Y-110740000D02*
X103950000Y-111083000D01*
X103990000Y-108381000D02*
X103990000Y-108660000D01*
X103990000Y-110740000D02*
X103990000Y-111019000D01*
X104030000Y-108449000D02*
X104030000Y-108660000D01*
X104030000Y-110740000D02*
X104030000Y-110951000D01*
X104070000Y-108523000D02*
X104070000Y-110877000D01*
X104110000Y-108602000D02*
X104110000Y-110798000D01*
X104150000Y-108689000D02*
X104150000Y-110711000D01*
X104190000Y-108786000D02*
X104190000Y-110614000D01*
X104230000Y-108895000D02*
X104230000Y-110505000D01*
X104270000Y-109023000D02*
X104270000Y-110377000D01*
X104310000Y-109183000D02*
X104310000Y-110217000D01*
X104350000Y-109417000D02*
X104350000Y-109983000D01*
X104370000Y-109700000D02*
G75*
G02*
X99130000Y-109700000I-2620000J0D01*
G01*
X99130000Y-109700000D02*
G75*
G02*
X104370000Y-109700000I2620000J0D01*
G01*
%TO.C,J6*%
X193170000Y-94480000D02*
X193170000Y-102160000D01*
X193170000Y-94480000D02*
X195830000Y-94480000D01*
X193170000Y-102160000D02*
X195830000Y-102160000D01*
X194500000Y-91880000D02*
X195830000Y-91880000D01*
X195830000Y-91880000D02*
X195830000Y-93210000D01*
X195830000Y-94480000D02*
X195830000Y-102160000D01*
%TO.C,R6*%
X167385000Y-85812936D02*
X167385000Y-86267064D01*
X168855000Y-85812936D02*
X168855000Y-86267064D01*
%TO.C,C5*%
X118288860Y-104464500D02*
X118811364Y-104464500D01*
X118288860Y-105934500D02*
X118811364Y-105934500D01*
%TO.C,J1*%
X75670000Y-80330000D02*
X75670000Y-113410000D01*
X75670000Y-80330000D02*
X78330000Y-80330000D01*
X75670000Y-113410000D02*
X78330000Y-113410000D01*
X77000000Y-77730000D02*
X78330000Y-77730000D01*
X78330000Y-77730000D02*
X78330000Y-79060000D01*
X78330000Y-80330000D02*
X78330000Y-113410000D01*
%TO.C,C3*%
X83215112Y-96938248D02*
X83215112Y-97460752D01*
X84685112Y-96938248D02*
X84685112Y-97460752D01*
%TO.C,C4*%
X101338860Y-104714500D02*
X101861364Y-104714500D01*
X101338860Y-106184500D02*
X101861364Y-106184500D01*
%TO.C,U2*%
X85375112Y-72389500D02*
X100825112Y-72389500D01*
X85375112Y-101589500D02*
X85375112Y-72389500D01*
X85375112Y-101589500D02*
X85375112Y-101589500D01*
X85951112Y-95925500D02*
X96619112Y-95925500D01*
X85951112Y-101259500D02*
X85951112Y-95925500D01*
X85951112Y-101259500D02*
X85951112Y-101259500D01*
X96619112Y-95925500D02*
X96619112Y-101259500D01*
X96619112Y-101259500D02*
X85951112Y-101259500D01*
X96619112Y-101259500D02*
X96619112Y-101259500D01*
X100825112Y-72389500D02*
X100825112Y-101589500D01*
X100825112Y-101589500D02*
X85375112Y-101589500D01*
X87715112Y-102125500D02*
X87235112Y-102125500D01*
X87475112Y-101789500D01*
X87715112Y-102125500D01*
G36*
X87715112Y-102125500D02*
G01*
X87235112Y-102125500D01*
X87475112Y-101789500D01*
X87715112Y-102125500D01*
G37*
%TO.C,C9*%
X86660112Y-106689500D02*
X85131112Y-106689500D01*
X86660112Y-106729500D02*
X85135112Y-106729500D01*
X86660112Y-106769500D02*
X85140112Y-106769500D01*
X86660112Y-106809500D02*
X85145112Y-106809500D01*
X86660112Y-106849500D02*
X85151112Y-106849500D01*
X86660112Y-106889500D02*
X85157112Y-106889500D01*
X86660112Y-106929500D02*
X85164112Y-106929500D01*
X86660112Y-106969500D02*
X85172112Y-106969500D01*
X86660112Y-107009500D02*
X85181112Y-107009500D01*
X86660112Y-107049500D02*
X85190112Y-107049500D01*
X86660112Y-107089500D02*
X85199112Y-107089500D01*
X86660112Y-107129500D02*
X85210112Y-107129500D01*
X86660112Y-107169500D02*
X85221112Y-107169500D01*
X86660112Y-107209500D02*
X85233112Y-107209500D01*
X86660112Y-107249500D02*
X85245112Y-107249500D01*
X86660112Y-107289500D02*
X85258112Y-107289500D01*
X86660112Y-107329500D02*
X85272112Y-107329500D01*
X86660112Y-107369500D02*
X85287112Y-107369500D01*
X86660112Y-107409500D02*
X85302112Y-107409500D01*
X86660112Y-107449500D02*
X85318112Y-107449500D01*
X86660112Y-107489500D02*
X85335112Y-107489500D01*
X86660112Y-107529500D02*
X85353112Y-107529500D01*
X86660112Y-107569500D02*
X85371112Y-107569500D01*
X86660112Y-107609500D02*
X85391112Y-107609500D01*
X86660112Y-107649500D02*
X85411112Y-107649500D01*
X86660112Y-107689500D02*
X85432112Y-107689500D01*
X86660112Y-107729500D02*
X85454112Y-107729500D01*
X86660112Y-107769500D02*
X85477112Y-107769500D01*
X86660112Y-107809500D02*
X85501112Y-107809500D01*
X86660112Y-107849500D02*
X85525112Y-107849500D01*
X86660112Y-107889500D02*
X85551112Y-107889500D01*
X86660112Y-107929500D02*
X85578112Y-107929500D01*
X86660112Y-107969500D02*
X85606112Y-107969500D01*
X86660112Y-108009500D02*
X85635112Y-108009500D01*
X86660112Y-108049500D02*
X85665112Y-108049500D01*
X86660112Y-108089500D02*
X85697112Y-108089500D01*
X86660112Y-108129500D02*
X85730112Y-108129500D01*
X86660112Y-108169500D02*
X85764112Y-108169500D01*
X86660112Y-108209500D02*
X85799112Y-108209500D01*
X86660112Y-108249500D02*
X85836112Y-108249500D01*
X86660112Y-108289500D02*
X85875112Y-108289500D01*
X86660112Y-108329500D02*
X85915112Y-108329500D01*
X86660112Y-108369500D02*
X85957112Y-108369500D01*
X86660112Y-108409500D02*
X86001112Y-108409500D01*
X86660112Y-108449500D02*
X86048112Y-108449500D01*
X86660112Y-108489500D02*
X86096112Y-108489500D01*
X86660112Y-108529500D02*
X86147112Y-108529500D01*
X86660112Y-108569500D02*
X86201112Y-108569500D01*
X86660112Y-108609500D02*
X86257112Y-108609500D01*
X86660112Y-108649500D02*
X86317112Y-108649500D01*
X86660112Y-108689500D02*
X86381112Y-108689500D01*
X86660112Y-108729500D02*
X86449112Y-108729500D01*
X87983112Y-109049500D02*
X87417112Y-109049500D01*
X88217112Y-109009500D02*
X87183112Y-109009500D01*
X88377112Y-108969500D02*
X87023112Y-108969500D01*
X88505112Y-108929500D02*
X86895112Y-108929500D01*
X88614112Y-108889500D02*
X86786112Y-108889500D01*
X88711112Y-108849500D02*
X86689112Y-108849500D01*
X88798112Y-108809500D02*
X86602112Y-108809500D01*
X88877112Y-108769500D02*
X86523112Y-108769500D01*
X88951112Y-108729500D02*
X88740112Y-108729500D01*
X89019112Y-108689500D02*
X88740112Y-108689500D01*
X89083112Y-108649500D02*
X88740112Y-108649500D01*
X89143112Y-108609500D02*
X88740112Y-108609500D01*
X89175112Y-103644725D02*
X89175112Y-104144725D01*
X89199112Y-108569500D02*
X88740112Y-108569500D01*
X89253112Y-108529500D02*
X88740112Y-108529500D01*
X89304112Y-108489500D02*
X88740112Y-108489500D01*
X89352112Y-108449500D02*
X88740112Y-108449500D01*
X89399112Y-108409500D02*
X88740112Y-108409500D01*
X89425112Y-103894725D02*
X88925112Y-103894725D01*
X89443112Y-108369500D02*
X88740112Y-108369500D01*
X89485112Y-108329500D02*
X88740112Y-108329500D01*
X89525112Y-108289500D02*
X88740112Y-108289500D01*
X89564112Y-108249500D02*
X88740112Y-108249500D01*
X89601112Y-108209500D02*
X88740112Y-108209500D01*
X89636112Y-108169500D02*
X88740112Y-108169500D01*
X89670112Y-108129500D02*
X88740112Y-108129500D01*
X89703112Y-108089500D02*
X88740112Y-108089500D01*
X89735112Y-108049500D02*
X88740112Y-108049500D01*
X89765112Y-108009500D02*
X88740112Y-108009500D01*
X89794112Y-107969500D02*
X88740112Y-107969500D01*
X89822112Y-107929500D02*
X88740112Y-107929500D01*
X89849112Y-107889500D02*
X88740112Y-107889500D01*
X89875112Y-107849500D02*
X88740112Y-107849500D01*
X89899112Y-107809500D02*
X88740112Y-107809500D01*
X89923112Y-107769500D02*
X88740112Y-107769500D01*
X89946112Y-107729500D02*
X88740112Y-107729500D01*
X89968112Y-107689500D02*
X88740112Y-107689500D01*
X89989112Y-107649500D02*
X88740112Y-107649500D01*
X90009112Y-107609500D02*
X88740112Y-107609500D01*
X90029112Y-107569500D02*
X88740112Y-107569500D01*
X90047112Y-107529500D02*
X88740112Y-107529500D01*
X90065112Y-107489500D02*
X88740112Y-107489500D01*
X90082112Y-107449500D02*
X88740112Y-107449500D01*
X90098112Y-107409500D02*
X88740112Y-107409500D01*
X90113112Y-107369500D02*
X88740112Y-107369500D01*
X90128112Y-107329500D02*
X88740112Y-107329500D01*
X90142112Y-107289500D02*
X88740112Y-107289500D01*
X90155112Y-107249500D02*
X88740112Y-107249500D01*
X90167112Y-107209500D02*
X88740112Y-107209500D01*
X90179112Y-107169500D02*
X88740112Y-107169500D01*
X90190112Y-107129500D02*
X88740112Y-107129500D01*
X90201112Y-107089500D02*
X88740112Y-107089500D01*
X90210112Y-107049500D02*
X88740112Y-107049500D01*
X90219112Y-107009500D02*
X88740112Y-107009500D01*
X90228112Y-106969500D02*
X88740112Y-106969500D01*
X90236112Y-106929500D02*
X88740112Y-106929500D01*
X90243112Y-106889500D02*
X88740112Y-106889500D01*
X90249112Y-106849500D02*
X88740112Y-106849500D01*
X90255112Y-106809500D02*
X88740112Y-106809500D01*
X90260112Y-106769500D02*
X88740112Y-106769500D01*
X90265112Y-106729500D02*
X88740112Y-106729500D01*
X90269112Y-106689500D02*
X88740112Y-106689500D01*
X90272112Y-106649500D02*
X85128112Y-106649500D01*
X90275112Y-106609500D02*
X85125112Y-106609500D01*
X90277112Y-106569500D02*
X85123112Y-106569500D01*
X90279112Y-106529500D02*
X85121112Y-106529500D01*
X90280112Y-106449500D02*
X85120112Y-106449500D01*
X90280112Y-106489500D02*
X85120112Y-106489500D01*
X90320112Y-106449500D02*
G75*
G02*
X85080112Y-106449500I-2620000J0D01*
G01*
X85080112Y-106449500D02*
G75*
G02*
X90320112Y-106449500I2620000J0D01*
G01*
%TO.C,U3*%
X102180112Y-72389500D02*
X117630112Y-72389500D01*
X102180112Y-101589500D02*
X102180112Y-72389500D01*
X102180112Y-101589500D02*
X102180112Y-101589500D01*
X102756112Y-95925500D02*
X113424112Y-95925500D01*
X102756112Y-101259500D02*
X102756112Y-95925500D01*
X102756112Y-101259500D02*
X102756112Y-101259500D01*
X113424112Y-95925500D02*
X113424112Y-101259500D01*
X113424112Y-101259500D02*
X102756112Y-101259500D01*
X113424112Y-101259500D02*
X113424112Y-101259500D01*
X117630112Y-72389500D02*
X117630112Y-101589500D01*
X117630112Y-101589500D02*
X102180112Y-101589500D01*
X104520112Y-102125500D02*
X104040112Y-102125500D01*
X104280112Y-101789500D01*
X104520112Y-102125500D01*
G36*
X104520112Y-102125500D02*
G01*
X104040112Y-102125500D01*
X104280112Y-101789500D01*
X104520112Y-102125500D01*
G37*
%TO.C,D2*%
X174920000Y-65710000D02*
X174764000Y-65710000D01*
X177236000Y-65710000D02*
X177080000Y-65710000D01*
X174920000Y-68310961D02*
G75*
G02*
X174920000Y-66229039I1080000J1040961D01*
G01*
X174920000Y-68941437D02*
G75*
G02*
X174764484Y-65710000I1080000J1671437D01*
G01*
X177080000Y-66229039D02*
G75*
G02*
X177080000Y-68310961I-1080000J-1040961D01*
G01*
X177235516Y-65710000D02*
G75*
G02*
X177080000Y-68941437I-1235516J-1560000D01*
G01*
%TO.C,C2*%
X80765000Y-80238748D02*
X80765000Y-80761252D01*
X82235000Y-80238748D02*
X82235000Y-80761252D01*
%TO.C,R7*%
X167385000Y-97812936D02*
X167385000Y-98267064D01*
X168855000Y-97812936D02*
X168855000Y-98267064D01*
%TO.C,J5*%
X193170000Y-86765000D02*
X193170000Y-89365000D01*
X193170000Y-86765000D02*
X195830000Y-86765000D01*
X193170000Y-89365000D02*
X195830000Y-89365000D01*
X194500000Y-84165000D02*
X195830000Y-84165000D01*
X195830000Y-84165000D02*
X195830000Y-85495000D01*
X195830000Y-86765000D02*
X195830000Y-89365000D01*
%TO.C,R2*%
X95765000Y-119277064D02*
X95765000Y-118822936D01*
X97235000Y-119277064D02*
X97235000Y-118822936D01*
%TO.C,J2*%
X199890000Y-102190000D02*
X199890000Y-100860000D01*
X201000000Y-102190000D02*
X199890000Y-102190000D01*
X202460000Y-75100000D02*
X202050000Y-75100000D01*
X202460000Y-75820000D02*
X202050000Y-75820000D01*
X202460000Y-77640000D02*
X202050000Y-77640000D01*
X202460000Y-78360000D02*
X202050000Y-78360000D01*
X202460000Y-80180000D02*
X202050000Y-80180000D01*
X202460000Y-80900000D02*
X202050000Y-80900000D01*
X202460000Y-82720000D02*
X202050000Y-82720000D01*
X202460000Y-83440000D02*
X202050000Y-83440000D01*
X202460000Y-85260000D02*
X202050000Y-85260000D01*
X202460000Y-85980000D02*
X202050000Y-85980000D01*
X202460000Y-87800000D02*
X202050000Y-87800000D01*
X202460000Y-88520000D02*
X202050000Y-88520000D01*
X202460000Y-90340000D02*
X202050000Y-90340000D01*
X202460000Y-91060000D02*
X202050000Y-91060000D01*
X202460000Y-92880000D02*
X202050000Y-92880000D01*
X202460000Y-93600000D02*
X202050000Y-93600000D01*
X202460000Y-95420000D02*
X202050000Y-95420000D01*
X202460000Y-96140000D02*
X202050000Y-96140000D01*
X202460000Y-97960000D02*
X202050000Y-97960000D01*
X202460000Y-98680000D02*
X202050000Y-98680000D01*
X202460000Y-100500000D02*
X202110000Y-100500000D01*
X202460000Y-101220000D02*
X202110000Y-101220000D01*
X202460000Y-102190000D02*
X202460000Y-74130000D01*
X211090000Y-74130000D02*
X202460000Y-74130000D01*
X211090000Y-76730000D02*
X202460000Y-76730000D01*
X211090000Y-79270000D02*
X202460000Y-79270000D01*
X211090000Y-81810000D02*
X202460000Y-81810000D01*
X211090000Y-84350000D02*
X202460000Y-84350000D01*
X211090000Y-86890000D02*
X202460000Y-86890000D01*
X211090000Y-89430000D02*
X202460000Y-89430000D01*
X211090000Y-91970000D02*
X202460000Y-91970000D01*
X211090000Y-94510000D02*
X202460000Y-94510000D01*
X211090000Y-97050000D02*
X202460000Y-97050000D01*
X211090000Y-99590000D02*
X202460000Y-99590000D01*
X211090000Y-99708100D02*
X202460000Y-99708100D01*
X211090000Y-99826195D02*
X202460000Y-99826195D01*
X211090000Y-99944290D02*
X202460000Y-99944290D01*
X211090000Y-100062385D02*
X202460000Y-100062385D01*
X211090000Y-100180480D02*
X202460000Y-100180480D01*
X211090000Y-100298575D02*
X202460000Y-100298575D01*
X211090000Y-100416670D02*
X202460000Y-100416670D01*
X211090000Y-100534765D02*
X202460000Y-100534765D01*
X211090000Y-100652860D02*
X202460000Y-100652860D01*
X211090000Y-100770955D02*
X202460000Y-100770955D01*
X211090000Y-100889050D02*
X202460000Y-100889050D01*
X211090000Y-101007145D02*
X202460000Y-101007145D01*
X211090000Y-101125240D02*
X202460000Y-101125240D01*
X211090000Y-101243335D02*
X202460000Y-101243335D01*
X211090000Y-101361430D02*
X202460000Y-101361430D01*
X211090000Y-101479525D02*
X202460000Y-101479525D01*
X211090000Y-101597620D02*
X202460000Y-101597620D01*
X211090000Y-101715715D02*
X202460000Y-101715715D01*
X211090000Y-101833810D02*
X202460000Y-101833810D01*
X211090000Y-101951905D02*
X202460000Y-101951905D01*
X211090000Y-102070000D02*
X202460000Y-102070000D01*
X211090000Y-102190000D02*
X202460000Y-102190000D01*
X211090000Y-102190000D02*
X211090000Y-74130000D01*
%TO.C,R4*%
X178772936Y-70265000D02*
X179227064Y-70265000D01*
X178772936Y-71735000D02*
X179227064Y-71735000D01*
D11*
%TO.C,MP1548EN1*%
X144049000Y-131382000D02*
X141509000Y-131382000D01*
X144049000Y-131382000D02*
X121951000Y-131382000D01*
X121951000Y-114618000D01*
X144049000Y-114618000D01*
X144049000Y-131382000D01*
D12*
%TO.C,C11*%
X115945225Y-108725000D02*
X116445225Y-108725000D01*
X116195225Y-108475000D02*
X116195225Y-108975000D01*
X118750000Y-107620000D02*
X118750000Y-112780000D01*
X118790000Y-107620000D02*
X118790000Y-112780000D01*
X118830000Y-107621000D02*
X118830000Y-112779000D01*
X118870000Y-107623000D02*
X118870000Y-112777000D01*
X118910000Y-107625000D02*
X118910000Y-112775000D01*
X118950000Y-107628000D02*
X118950000Y-112772000D01*
X118990000Y-107631000D02*
X118990000Y-109160000D01*
X118990000Y-111240000D02*
X118990000Y-112769000D01*
X119030000Y-107635000D02*
X119030000Y-109160000D01*
X119030000Y-111240000D02*
X119030000Y-112765000D01*
X119070000Y-107640000D02*
X119070000Y-109160000D01*
X119070000Y-111240000D02*
X119070000Y-112760000D01*
X119110000Y-107645000D02*
X119110000Y-109160000D01*
X119110000Y-111240000D02*
X119110000Y-112755000D01*
X119150000Y-107651000D02*
X119150000Y-109160000D01*
X119150000Y-111240000D02*
X119150000Y-112749000D01*
X119190000Y-107657000D02*
X119190000Y-109160000D01*
X119190000Y-111240000D02*
X119190000Y-112743000D01*
X119230000Y-107664000D02*
X119230000Y-109160000D01*
X119230000Y-111240000D02*
X119230000Y-112736000D01*
X119270000Y-107672000D02*
X119270000Y-109160000D01*
X119270000Y-111240000D02*
X119270000Y-112728000D01*
X119310000Y-107681000D02*
X119310000Y-109160000D01*
X119310000Y-111240000D02*
X119310000Y-112719000D01*
X119350000Y-107690000D02*
X119350000Y-109160000D01*
X119350000Y-111240000D02*
X119350000Y-112710000D01*
X119390000Y-107699000D02*
X119390000Y-109160000D01*
X119390000Y-111240000D02*
X119390000Y-112701000D01*
X119430000Y-107710000D02*
X119430000Y-109160000D01*
X119430000Y-111240000D02*
X119430000Y-112690000D01*
X119470000Y-107721000D02*
X119470000Y-109160000D01*
X119470000Y-111240000D02*
X119470000Y-112679000D01*
X119510000Y-107733000D02*
X119510000Y-109160000D01*
X119510000Y-111240000D02*
X119510000Y-112667000D01*
X119550000Y-107745000D02*
X119550000Y-109160000D01*
X119550000Y-111240000D02*
X119550000Y-112655000D01*
X119590000Y-107758000D02*
X119590000Y-109160000D01*
X119590000Y-111240000D02*
X119590000Y-112642000D01*
X119630000Y-107772000D02*
X119630000Y-109160000D01*
X119630000Y-111240000D02*
X119630000Y-112628000D01*
X119670000Y-107787000D02*
X119670000Y-109160000D01*
X119670000Y-111240000D02*
X119670000Y-112613000D01*
X119710000Y-107802000D02*
X119710000Y-109160000D01*
X119710000Y-111240000D02*
X119710000Y-112598000D01*
X119750000Y-107818000D02*
X119750000Y-109160000D01*
X119750000Y-111240000D02*
X119750000Y-112582000D01*
X119790000Y-107835000D02*
X119790000Y-109160000D01*
X119790000Y-111240000D02*
X119790000Y-112565000D01*
X119830000Y-107853000D02*
X119830000Y-109160000D01*
X119830000Y-111240000D02*
X119830000Y-112547000D01*
X119870000Y-107871000D02*
X119870000Y-109160000D01*
X119870000Y-111240000D02*
X119870000Y-112529000D01*
X119910000Y-107891000D02*
X119910000Y-109160000D01*
X119910000Y-111240000D02*
X119910000Y-112509000D01*
X119950000Y-107911000D02*
X119950000Y-109160000D01*
X119950000Y-111240000D02*
X119950000Y-112489000D01*
X119990000Y-107932000D02*
X119990000Y-109160000D01*
X119990000Y-111240000D02*
X119990000Y-112468000D01*
X120030000Y-107954000D02*
X120030000Y-109160000D01*
X120030000Y-111240000D02*
X120030000Y-112446000D01*
X120070000Y-107977000D02*
X120070000Y-109160000D01*
X120070000Y-111240000D02*
X120070000Y-112423000D01*
X120110000Y-108001000D02*
X120110000Y-109160000D01*
X120110000Y-111240000D02*
X120110000Y-112399000D01*
X120150000Y-108025000D02*
X120150000Y-109160000D01*
X120150000Y-111240000D02*
X120150000Y-112375000D01*
X120190000Y-108051000D02*
X120190000Y-109160000D01*
X120190000Y-111240000D02*
X120190000Y-112349000D01*
X120230000Y-108078000D02*
X120230000Y-109160000D01*
X120230000Y-111240000D02*
X120230000Y-112322000D01*
X120270000Y-108106000D02*
X120270000Y-109160000D01*
X120270000Y-111240000D02*
X120270000Y-112294000D01*
X120310000Y-108135000D02*
X120310000Y-109160000D01*
X120310000Y-111240000D02*
X120310000Y-112265000D01*
X120350000Y-108165000D02*
X120350000Y-109160000D01*
X120350000Y-111240000D02*
X120350000Y-112235000D01*
X120390000Y-108197000D02*
X120390000Y-109160000D01*
X120390000Y-111240000D02*
X120390000Y-112203000D01*
X120430000Y-108230000D02*
X120430000Y-109160000D01*
X120430000Y-111240000D02*
X120430000Y-112170000D01*
X120470000Y-108264000D02*
X120470000Y-109160000D01*
X120470000Y-111240000D02*
X120470000Y-112136000D01*
X120510000Y-108299000D02*
X120510000Y-109160000D01*
X120510000Y-111240000D02*
X120510000Y-112101000D01*
X120550000Y-108336000D02*
X120550000Y-109160000D01*
X120550000Y-111240000D02*
X120550000Y-112064000D01*
X120590000Y-108375000D02*
X120590000Y-109160000D01*
X120590000Y-111240000D02*
X120590000Y-112025000D01*
X120630000Y-108415000D02*
X120630000Y-109160000D01*
X120630000Y-111240000D02*
X120630000Y-111985000D01*
X120670000Y-108457000D02*
X120670000Y-109160000D01*
X120670000Y-111240000D02*
X120670000Y-111943000D01*
X120710000Y-108501000D02*
X120710000Y-109160000D01*
X120710000Y-111240000D02*
X120710000Y-111899000D01*
X120750000Y-108548000D02*
X120750000Y-109160000D01*
X120750000Y-111240000D02*
X120750000Y-111852000D01*
X120790000Y-108596000D02*
X120790000Y-109160000D01*
X120790000Y-111240000D02*
X120790000Y-111804000D01*
X120830000Y-108647000D02*
X120830000Y-109160000D01*
X120830000Y-111240000D02*
X120830000Y-111753000D01*
X120870000Y-108701000D02*
X120870000Y-109160000D01*
X120870000Y-111240000D02*
X120870000Y-111699000D01*
X120910000Y-108757000D02*
X120910000Y-109160000D01*
X120910000Y-111240000D02*
X120910000Y-111643000D01*
X120950000Y-108817000D02*
X120950000Y-109160000D01*
X120950000Y-111240000D02*
X120950000Y-111583000D01*
X120990000Y-108881000D02*
X120990000Y-109160000D01*
X120990000Y-111240000D02*
X120990000Y-111519000D01*
X121030000Y-108949000D02*
X121030000Y-109160000D01*
X121030000Y-111240000D02*
X121030000Y-111451000D01*
X121070000Y-109023000D02*
X121070000Y-111377000D01*
X121110000Y-109102000D02*
X121110000Y-111298000D01*
X121150000Y-109189000D02*
X121150000Y-111211000D01*
X121190000Y-109286000D02*
X121190000Y-111114000D01*
X121230000Y-109395000D02*
X121230000Y-111005000D01*
X121270000Y-109523000D02*
X121270000Y-110877000D01*
X121310000Y-109683000D02*
X121310000Y-110717000D01*
X121350000Y-109917000D02*
X121350000Y-110483000D01*
X121370000Y-110200000D02*
G75*
G02*
X116130000Y-110200000I-2620000J0D01*
G01*
X116130000Y-110200000D02*
G75*
G02*
X121370000Y-110200000I2620000J0D01*
G01*
%TO.C,J3*%
X89010000Y-127325000D02*
X89010000Y-125625000D01*
X98350000Y-127325000D02*
X98350000Y-125625000D01*
%TD*%
M02*
